<svg xmlns="http://www.w3.org/2000/svg" width="20.072" height="18.984" viewBox="0 0 20.072 18.984">
  <g id="usr-name" transform="translate(-4.706 0.5)">
    <g id="Grupo_119" data-name="Grupo 119" transform="translate(5.206)">
      <path id="Caminho_173" data-name="Caminho 173" d="M35.079,51.57,34.87,49.1a3.034,3.034,0,0,0-2.246-2.88L29.392,45.06l-1.1-1.253L28.146,44l-2.587,3.531L22.972,44l-.143-.195-1.1,1.253-3.233,1.158a3.033,3.033,0,0,0-2.245,2.88l-.24,2.472Z" transform="translate(-16.008 -33.586)" fill="none" stroke="#d52b1e" stroke-linecap="round" stroke-linejoin="round" stroke-miterlimit="10" stroke-width="1"/>
      <path id="Caminho_174" data-name="Caminho 174" d="M37.779,24.475a3.879,3.879,0,0,1-3.88,3.88h-.161a3.881,3.881,0,0,1-3.88-3.88V22.293a3.881,3.881,0,0,1,3.88-3.88H33.9a3.879,3.879,0,0,1,3.88,3.88Z" transform="translate(-24.284 -18.413)" fill="none" stroke="#d52b1e" stroke-linecap="round" stroke-linejoin="round" stroke-miterlimit="10" stroke-width="1"/>
    </g>
  </g>
</svg>
