<svg xmlns="http://www.w3.org/2000/svg" width="34.298" height="34" viewBox="0 0 34.298 34">
  <path id="reuniao-chamar" d="M5.97.29A.7.7,0,0,0,5.216.026C3.718.45-.75,2.2.109,7.846.751,12.07,5.927,20.368,13.456,26.662c4.258,3.56,9.452,6.486,14.936,7.329a.737.737,0,0,0,.165.007,6.171,6.171,0,0,0,5.733-5.421.692.692,0,0,0-.331-.69l-8.125-4.963a.7.7,0,0,0-.632-.051l-4.611,1.876a.7.7,0,0,1-.665-.073c-1.413-.985-7.238-5.251-10.5-10.75a.705.705,0,0,1-.006-.7l2.375-4.249a.7.7,0,0,0-.045-.757Z" fill="#009ed3"/>
</svg>
