<svg xmlns="http://www.w3.org/2000/svg" xmlns:xlink="http://www.w3.org/1999/xlink" width="18.827" height="17.772" viewBox="0 0 18.827 17.772">
  <defs>
    <clipPath id="clip-path">
      <rect width="18.827" height="17.772" fill="none"/>
    </clipPath>
    <linearGradient id="linear-gradient" x1="-0.049" y1="0.816" x2="0.764" y2="1.282" gradientUnits="objectBoundingBox">
      <stop offset="0" stop-color="#d12d21"/>
      <stop offset="1" stop-color="#099acc"/>
    </linearGradient>
  </defs>
  <g id="cliente-numero" clip-path="url(#clip-path)">
    <path id="Caminho_221" data-name="Caminho 221" d="M33.67,28.127h.158A3.826,3.826,0,0,0,37.654,24.3V22.149a3.826,3.826,0,0,0-3.826-3.827H33.67a3.827,3.827,0,0,0-3.827,3.827V24.3A3.827,3.827,0,0,0,33.67,28.127ZM30.289,22.29a3.378,3.378,0,0,1,3.378-3.378h.14a3.377,3.377,0,0,1,3.378,3.378v1.9a3.377,3.377,0,0,1-3.378,3.378h-.14a3.378,3.378,0,0,1-3.378-3.378Z" transform="translate(-24.335 -18.322)" fill="url(#linear-gradient)"/>
    <path id="Caminho_222" data-name="Caminho 222" d="M34.558,49.025a2.991,2.991,0,0,0-2.214-2.84,8.551,8.551,0,0,1-3.189-1.142c-.307-.274-1.087-1.236-1.087-1.236l-2.687,3.667-2.687-3.667s-.78.962-1.087,1.236a8.551,8.551,0,0,1-3.189,1.142,2.991,2.991,0,0,0-2.214,2.84l-.237,2.438H34.794Zm-9.177,1.836H16.614l.227-1.874c.266-2.309,1.866-2.435,1.866-2.435a9.679,9.679,0,0,0,3.2-1,6.314,6.314,0,0,0,.833-.752l.259.377,2.384,3.143,2.384-3.143.259-.377a6.324,6.324,0,0,0,.833.752,9.678,9.678,0,0,0,3.2,1s1.6.125,1.866,2.435l.227,1.874Z" transform="translate(-15.967 -33.691)" fill="url(#linear-gradient)"/>
  </g>
</svg>
