<svg xmlns="http://www.w3.org/2000/svg" width="39.573" height="13.317" viewBox="0 0 39.573 13.317">
  <g id="conference-phone-off" transform="translate(0.706 0.503)">
    <path id="Caminho_73" data-name="Caminho 73" d="M323.74,403a.64.64,0,0,0,.64-.3,5.93,5.93,0,0,0-1.71-8.13c-4.89-3.6-23.6-6.47-34.24,1.34a.521.521,0,0,0-.11.1,5.48,5.48,0,0,0-.19,7,.62.62,0,0,0,.64.22l8.23-2a.59.59,0,0,0,.43-.36l1.72-4.08a.6.6,0,0,1,.47-.37c1.5-.27,7.85-1.25,13.37.15a.65.65,0,0,1,.44.44l1.18,4.17a.65.65,0,0,0,.51.45Z" transform="translate(-286.959 -390.942)" fill="none" stroke="#b1b1b1" stroke-linecap="round" stroke-linejoin="round" stroke-width="1"/>
  </g>
</svg>
