<svg xmlns="http://www.w3.org/2000/svg" xmlns:xlink="http://www.w3.org/1999/xlink" width="56" height="56" viewBox="0 0 56 56">
  <defs>
    <clipPath id="clip-path">
      <rect width="56" height="56" fill="none"/>
    </clipPath>
  </defs>
  <g id="desligar-on" clip-path="url(#clip-path)">
    <g id="chamada-desligar" transform="translate(7.5 3)">
      <g id="Caminho_91" data-name="Caminho 91" transform="translate(30.979 43.04) rotate(180)" fill="#da291c">
        <path d="M 9.163987159729004 17.82799911499023 C 4.38664722442627 17.82799911499023 0.4999971687793732 13.94134902954102 0.4999971687793732 9.163998603820801 C 0.4999971687793732 4.386648654937744 4.38664722442627 0.4999985992908478 9.163987159729004 0.4999985992908478 C 13.94132709503174 0.4999985992908478 17.82797622680664 4.386648654937744 17.82797622680664 9.163998603820801 C 17.82797622680664 13.94134902954102 13.94132709503174 17.82799911499023 9.163987159729004 17.82799911499023 Z" stroke="none"/>
        <path d="M 9.163987159729004 0.9999980926513672 C 4.662346839904785 0.9999980926513672 0.9999980926513672 4.662358283996582 0.9999980926513672 9.163998603820801 C 0.9999980926513672 13.6656379699707 4.662346839904785 17.32799911499023 9.163987159729004 17.32799911499023 C 13.66562652587891 17.32799911499023 17.32797622680664 13.6656379699707 17.32797622680664 9.163998603820801 C 17.32797622680664 4.662358283996582 13.66562652587891 0.9999980926513672 9.163987159729004 0.9999980926513672 M 9.163987159729004 -1.9073486328125e-06 C 14.22511672973633 -1.9073486328125e-06 18.32797622680664 4.102858543395996 18.32797622680664 9.163998603820801 C 18.32797622680664 14.22513866424561 14.22511672973633 18.32799911499023 9.163987159729004 18.32799911499023 C 4.10285758972168 18.32799911499023 -1.9073486328125e-06 14.22513866424561 -1.9073486328125e-06 9.163998603820801 C -1.9073486328125e-06 4.102858543395996 4.10285758972168 -1.9073486328125e-06 9.163987159729004 -1.9073486328125e-06 Z" stroke="none" fill="#da291c"/>
      </g>
      <line id="Linha_34" data-name="Linha 34" x1="8.625" y2="8.625" transform="translate(17.772 29.833)" fill="none" stroke="#fff" stroke-linecap="round" stroke-width="1.5"/>
      <line id="Linha_66" data-name="Linha 66" x1="8.625" y1="8.625" transform="translate(17.772 29.833)" fill="none" stroke="#fff" stroke-linecap="round" stroke-width="1.5"/>
      <path id="Caminho_73" data-name="Caminho 73" d="M323.74,403a.64.64,0,0,0,.64-.3,5.93,5.93,0,0,0-1.71-8.13c-4.89-3.6-23.6-6.47-34.24,1.34a.521.521,0,0,0-.11.1,5.48,5.48,0,0,0-.19,7,.62.62,0,0,0,.64.22l8.23-2a.59.59,0,0,0,.43-.36l1.72-4.08a.6.6,0,0,1,.47-.37c1.5-.27,7.85-1.25,13.37.15a.65.65,0,0,1,.44.44l1.18,4.17a.65.65,0,0,0,.51.45Z" transform="translate(-285.459 -378.422)" fill="#DA291C"/>
    </g>
    <path id="Caminho_214" data-name="Caminho 214" d="M248.406,389.057a28,28,0,1,0,28,28A28,28,0,0,0,248.406,389.057Zm0,54.041a26.04,26.04,0,1,1,26.042-26.04A26.041,26.041,0,0,1,248.406,443.1Z" transform="translate(-220.407 -389.057)" fill="#acacac"/>
  </g>
</svg>
