<svg xmlns="http://www.w3.org/2000/svg" xmlns:xlink="http://www.w3.org/1999/xlink" width="34" height="34" viewBox="0 0 34 34">
  <defs>
    <clipPath id="clip-path">
      <rect width="34" height="34" fill="none"/>
    </clipPath>
  </defs>
  <g id="espera-ativo" clip-path="url(#clip-path)">
    <circle id="Elipse_201" data-name="Elipse 201" cx="17" cy="17" r="17" fill="#da291c"/>
    <g id="chamada-pausar" transform="translate(0 -1)">
      <line id="Linha_81" data-name="Linha 81" y2="6" transform="translate(17.5 4.5)" fill="none" stroke="#fff" stroke-linecap="round" stroke-width="1.5"/>
      <line id="Linha_82" data-name="Linha 82" x1="5" transform="translate(26.5 18.5)" fill="none" stroke="#fff" stroke-linecap="round" stroke-width="1.5"/>
      <g id="Grupo_122" data-name="Grupo 122" transform="translate(-190.904 -402.783)">
        <path id="Caminho_177" data-name="Caminho 177" d="M210.875,427.634c-2.609-2.1-3.339-1.066-4.523.118-.827.827-2.917-.9-4.724-2.706s-3.532-3.9-2.706-4.724c1.184-1.184,2.215-1.914.117-4.522s-3.494-.607-4.641.54c-1.325,1.324-.071,6.256,4.8,11.131s9.808,6.128,11.13,4.806C211.48,431.129,213.483,429.732,210.875,427.634Z" transform="translate(0 2.013)" fill="none" stroke="#fff" stroke-width="1"/>
        <path id="Caminho_232" data-name="Caminho 232" d="M214.154,413.877s4.188,7.5,4.25,7.531,8.219-5.719,8.219-5.719" transform="translate(-10 1)" fill="none" stroke="#fff" stroke-linecap="round" stroke-width="1.5"/>
      </g>
    </g>
  </g>
</svg>
