<svg id="pausa-atendimento" xmlns="http://www.w3.org/2000/svg" width="120" height="120" viewBox="0 0 120 120">
  <path id="Caminho_95" data-name="Caminho 95" d="M280.4,389.057a60,60,0,1,0,60,60A60,60,0,0,0,280.4,389.057Zm0,115.8a55.8,55.8,0,1,1,55.8-55.8A55.8,55.8,0,0,1,280.4,504.859Z" transform="translate(-220.407 -389.057)" fill="#da291c"/>
  <g id="Layer_1_65_" transform="translate(15.4 15.445)">
    <g id="Grupo_270" data-name="Grupo 270" transform="translate(0 0)">
      <path id="Caminho_276" data-name="Caminho 276" d="M95.409,39.089a2.011,2.011,0,0,0-1.822-1.157H87.633a44.157,44.157,0,1,0-5.17,30.14,4.018,4.018,0,0,0-6.954-4.025,36.192,36.192,0,1,1,3.905-26.113H73.507a2.009,2.009,0,0,0-1.546,3.3L82.005,53.28a2.009,2.009,0,0,0,3.086,0L95.135,41.229A2.008,2.008,0,0,0,95.409,39.089Z" transform="translate(0 -1.775)" fill="#da291c"/>
      <path id="Caminho_277" data-name="Caminho 277" d="M25.3,6.713a4.017,4.017,0,0,0-4.017,4.017V35.106A7.023,7.023,0,0,0,25.3,47.894a6.942,6.942,0,0,0,2.966-.679l13.974,8.065a3.975,3.975,0,0,0,2.006.541,4.016,4.016,0,0,0,2.01-7.5L32.268,40.248a7,7,0,0,0-2.947-5.138V10.73A4.025,4.025,0,0,0,25.3,6.713Zm0,37.159a3.011,3.011,0,1,1,3.012-3.01A3.016,3.016,0,0,1,25.3,43.872Z" transform="translate(18.891 3.331)" fill="#da291c"/>
    </g>
  </g>
</svg>
