<svg xmlns="http://www.w3.org/2000/svg" xmlns:xlink="http://www.w3.org/1999/xlink" width="120" height="120" viewBox="0 0 120 120">
  <defs>
    <clipPath id="clip-path">
      <rect width="120" height="120" fill="none"/>
    </clipPath>
  </defs>
  <g id="pausa-agendada" clip-path="url(#clip-path)">
    <path id="Caminho_273" data-name="Caminho 273" d="M19.914,18.44l-4.979-4.979A37.495,37.495,0,0,0,0,41.2H7.112C7.823,31.6,12.446,23.418,19.914,18.44ZM67.566,41.2h7.112A37.14,37.14,0,0,0,60.1,13.461L55.119,18.44A30.078,30.078,0,0,1,67.566,41.2Zm-7.112,1.778a22.883,22.883,0,0,0-17.78-22.4V18.084a5.334,5.334,0,1,0-10.668,0v2.489a22.883,22.883,0,0,0-17.78,22.4V62.535L7.112,69.647V73.2H67.566V69.647l-7.112-7.112ZM37.339,83.872h1.422A6.184,6.184,0,0,0,43.74,79.6a6.7,6.7,0,0,0,.711-2.845H30.227A7.133,7.133,0,0,0,37.339,83.872Z" transform="translate(22.5 11.75)" fill="none" stroke="#da291c" stroke-width="1.5"/>
    <path id="Caminho_95" data-name="Caminho 95" d="M280.4,389.057a60,60,0,1,0,60,60A60,60,0,0,0,280.4,389.057Zm0,115.8a55.8,55.8,0,1,1,55.8-55.8A55.8,55.8,0,0,1,280.4,504.859Z" transform="translate(-220.407 -389.057)" fill="#da291c"/>
  </g>
</svg>
