<svg xmlns="http://www.w3.org/2000/svg" width="26.217" height="26.217" viewBox="0 0 26.217 26.217">
  <g id="usar-icon-header" transform="translate(0.25 0.25)">
    <g id="Camada_1-2" data-name="Camada 1-2" transform="translate(0)">
      <path id="Caminho_283" data-name="Caminho 283" d="M9.322,14.216s-2.946,1.5-3.706,2.036a2.715,2.715,0,0,0-1.225,2.213v3.662a.17.17,0,0,1-.339,0V18.455a3.054,3.054,0,0,1,1.378-2.5c.808-.553,3.733-2.036,3.733-2.036a.166.166,0,0,1,.225.067l0,0a.173.173,0,0,1-.071.231Zm12,7.911V18.455A2.715,2.715,0,0,0,20.1,16.242c-.757-.523-3.7-2.036-3.7-2.036a.17.17,0,0,1-.076-.227l0,0a.17.17,0,0,1,.227-.071S19.48,15.4,20.28,15.94a3.054,3.054,0,0,1,1.374,2.494v3.692a.17.17,0,0,1-.339,0ZM8.175,19.751v4.575a.17.17,0,0,1-.339,0V19.765a.17.17,0,0,1,.17-.17.173.173,0,0,1,.17.17Zm9.567,0v4.575a.17.17,0,0,1-.339,0V19.765a.173.173,0,0,1,.17-.17.17.17,0,0,1,.17.17ZM11.2,11.983v1.164a.17.17,0,0,1-.339,0V11.983a.17.17,0,0,1,.17-.17A.173.173,0,0,1,11.2,11.983Zm3.8,0v1.066l1.558.865a.171.171,0,0,1-.166.3L14.745,13.3l-.088-.149V11.983a.173.173,0,0,1,.17-.17A.17.17,0,0,1,15,11.983ZM9.882,7.744V9.309a3.054,3.054,0,1,0,6.109,0V8.969a.173.173,0,0,1,.17-.17.17.17,0,0,1,.17.17v.339a3.394,3.394,0,1,1-6.787,0V7.744a.173.173,0,0,1,.17-.17A.17.17,0,0,1,9.882,7.744Zm-.465.034.027-.17a1.546,1.546,0,0,0,.217,0c.339,0,.679-.071.679-.421V6.526c0-.424.085-.937.628-.937h2.745a.927.927,0,0,0,.635-.248c.339-.339.367-.38.367-.38a.176.176,0,0,1,.19-.054.17.17,0,0,1,.112.16v.669h.339l.17.17v1.51h-.17l.044-.163c0,.048.848.105.964.641V8.942h-.17l.058-.16h.02c.031-.02.139.058.163-.445V4.293h0s-.109-1.066-1.066-1.045H11.43c-.078,0-.394.037-.394.241V4.13l-.17.17H9.96c0,.024-.339-.071-.377.75V7.765h-.17l.027-.17-.027.17h-.17V5.05c0-.964.6-1.089.716-1.089h0v0h.726V3.506c.034-.59.679-.58.733-.58h3.93a1.467,1.467,0,0,1,1.4,1.357V8.355c0,.574-.292.784-.5.784a.418.418,0,0,1-.132-.02L16,8.956V7.894a6.526,6.526,0,0,0-.709-.312l-.129-.166V6.058h-.339l-.17-.17v-.8h.17l.132.109a5.506,5.506,0,0,1-.394.407,1.249,1.249,0,0,1-.872.339h-.048v0H10.928c-.251,0-.268.136-.288.6V7.2c0,.679-.679.76-1.018.76a2.146,2.146,0,0,1-.268-.017l-.146-.166ZM12.859.17v.17A12.519,12.519,0,1,0,25.374,12.862v0A12.536,12.536,0,0,0,12.859.339V0A12.859,12.859,0,1,1,0,12.859H0A12.855,12.855,0,0,1,12.852,0h.007Zm2.627,13.3c-.037,1-1.334,1.493-2.6,1.5s-2.484-.516-2.518-1.5a.17.17,0,1,1,.339,0c0,.628.974,1.164,2.179,1.164s2.257-.546,2.26-1.164a.17.17,0,1,1,.339,0Zm1.144.594c-.041,1.391-1.951,2.141-3.845,2.155S9.1,15.444,9.051,14.063l.112-.149L10.948,13a.166.166,0,0,1,.225.069l0,.005a.17.17,0,0,1-.071.227l-1.785.916-.078-.153h.17c0,1.018,1.544,1.812,3.394,1.816s3.485-.808,3.485-1.816a.17.17,0,1,1,.339,0ZM7.948,21.869l-3.774-1.1a.17.17,0,0,1-.115-.21.163.163,0,0,1,.2-.118l.009,0,3.787,1.093a.173.173,0,0,1,.115.21.17.17,0,0,1-.21.115Zm13.513-1.1-3.784,1.093a.166.166,0,0,1-.208-.109l0-.006a.17.17,0,0,1,.115-.21l3.8-1.093a.166.166,0,0,1,.208.109l0,.006a.173.173,0,0,1-.126.21Zm-9.923.611-.156-.068a1.195,1.195,0,0,1,2.287.485,1.162,1.162,0,0,1-.1.489A1.2,1.2,0,0,1,12.485,23a1.219,1.219,0,0,1-.485-.1,1.2,1.2,0,0,1-.607-1.575l.146.061.153.068a.89.89,0,0,0-.071.339.858.858,0,0,0,.509.784.878.878,0,0,0,.339.071.859.859,0,0,0,.781-.506.849.849,0,0,0,.075-.339.858.858,0,0,0-.509-.784.842.842,0,0,0-.339-.075.858.858,0,0,0-.784.509Zm.825-1.422v-.791a.17.17,0,0,1,.17-.17.173.173,0,0,1,.17.17v.8a.17.17,0,1,1-.339,0Zm1.948,1.724h.8a.173.173,0,0,1,.17.17.17.17,0,0,1-.17.17h-.8a.166.166,0,1,1,0-.333Zm-.618-1.266,1.045-1.042a.163.163,0,0,1,.23-.007l.007.007a.17.17,0,0,1,0,.24h0l-1.042,1.042a.17.17,0,0,1-.24,0h0a.2.2,0,0,1,0-.234Z" transform="translate(0)" fill="#da291c" stroke="#DA291C" stroke-width="0.5"/>
    </g>
  </g>
</svg>
