<svg xmlns="http://www.w3.org/2000/svg" width="21.133" height="21.072" viewBox="0 0 21.133 21.072">
    <g id="Group_837" data-name="Group 837" >
		<path id="Union_1" data-name="Union 1" d="M24298.656,16760.129l-.3-.3a.5.5,0,0,1,0-.709l3.859-3.859a6.848,6.848,0,0,1-.363-1,3.557,3.557,0,0,1-2.654-3.441,3.611,3.611,0,0,1,.666-2.094,3.455,3.455,0,0,1,1.709-1.27,7.122,7.122,0,0,1,12.7-4.242l2.854-2.855a.5.5,0,0,1,.709,0l.3.3a.5.5,0,0,1,0,.707l-18.768,18.768a.5.5,0,0,1-.707,0Zm5.127-10.943c-.02.049-.043.105-.08.178a.352.352,0,0,0-.023.049l-.014.025c-.012.035-.029.072-.041.1a7.622,7.622,0,0,0-.471,2.691,5.932,5.932,0,0,0,.279,1.8l5.369-5.367a7.742,7.742,0,0,1-2.127-1.859A6.128,6.128,0,0,1,24303.783,16749.186Zm.6,8.844c-.158-.121-.316-.262-.477-.408l1.123-1.123a5.409,5.409,0,0,0,6.885.373,5.715,5.715,0,0,0,1.965-2.7,7.556,7.556,0,0,1-3.68,1.031.528.528,0,0,1-.562.35h-1.971a.541.541,0,0,1-.555-.551v-.578l1.238-1.24h1.287a.661.661,0,0,1,.563.4c2.3-.121,3.729-1.129,3.961-2.057a7.763,7.763,0,0,0-.367-1.787c-.018.018-.055.023-.146.023h-.078a.867.867,0,0,0-.129-.006c-.158-.006-.428-.018-.787-.018a7.422,7.422,0,0,1-.818-.043l3.773-3.771a7.731,7.731,0,0,1,.213,1.525,3.516,3.516,0,0,1,1.709,1.27,3.623,3.623,0,0,1,.664,2.094,3.569,3.569,0,0,1-2.648,3.441,7.488,7.488,0,0,1-2.533,3.777,7.012,7.012,0,0,1-8.629,0Z" transform="translate(-24297.705 -16739.703)" fill="#3e3e3c" stroke="rgba(0,0,0,0)" stroke-miterlimit="10" stroke-width="1"/>
	</g>
</svg>
