<svg xmlns="http://www.w3.org/2000/svg" xmlns:xlink="http://www.w3.org/1999/xlink" width="68" height="68" viewBox="0 0 68 68">
  <defs>
    <clipPath id="clip-path">
      <rect width="68" height="68" fill="none"/>
    </clipPath>
    <linearGradient id="linear-gradient" x1="0.19" y1="0.114" x2="0.845" y2="0.872" gradientUnits="objectBoundingBox">
      <stop offset="0" stop-color="#DA291C"/>
      <stop offset="1" stop-color="#DA291C"/>
    </linearGradient>
    <linearGradient id="linear-gradient-2" x1="-0.049" y1="0.816" x2="0.764" y2="1.282" gradientUnits="objectBoundingBox">
      <stop offset="0" stop-color="#d12d21"/>
      <stop offset="1" stop-color="#099acc"/>
    </linearGradient>
  </defs>
  <g id="cliente" clip-path="url(#clip-path)">
    <path id="Caminho_111" data-name="Caminho 111" d="M254.406,389.057a34,34,0,1,0,34,34A34,34,0,0,0,254.406,389.057Zm0,65.621a31.62,31.62,0,1,1,31.622-31.62A31.621,31.621,0,0,1,254.406,454.678Z" transform="translate(-220.407 -389.057)" fill="url(#linear-gradient)"/>
    <g id="Grupo_143" data-name="Grupo 143" transform="translate(-5.967 -10.322)">
      <path id="Caminho_221" data-name="Caminho 221" d="M39.483,43.023h.4a9.638,9.638,0,0,0,9.639-9.64V27.962a9.638,9.638,0,0,0-9.639-9.64h-.4a9.641,9.641,0,0,0-9.64,9.64v5.421A9.641,9.641,0,0,0,39.483,43.023Zm-8.2-14.7a8.249,8.249,0,0,1,8.2-8.509h.352a8.386,8.386,0,0,1,8.2,8.665V33.26a8.12,8.12,0,0,1-8.2,8.353h-.352a8.249,8.249,0,0,1-8.2-8.509Z" fill="url(#linear-gradient-2)"/>
      <path id="Caminho_222" data-name="Caminho 222" d="M62.8,56.953c-.726-6.305-5.578-7.155-5.578-7.155s-5.89-.967-8.033-2.878c-.773-.69-2.739-3.113-2.739-3.113l-6.769,9.237-6.769-9.237s-1.966,2.423-2.739,3.113c-2.143,1.911-8.033,2.878-8.033,2.878s-4.852.85-5.578,7.155l-.6,6.141H63.4ZM39.682,61.579H17.6l.573-4.722c.67-5.818,4.7-6.134,4.7-6.134A24.384,24.384,0,0,0,30.926,48.2a15.906,15.906,0,0,0,2.1-1.9l.653.949,6.005,7.917,6.005-7.917.652-.949a15.932,15.932,0,0,0,2.1,1.9,24.381,24.381,0,0,0,8.054,2.522s4.031.316,4.7,6.134l.573,4.722Z" fill="url(#linear-gradient-2)"/>
    </g>
  </g>
</svg>
