<svg id="logado-esperando" xmlns="http://www.w3.org/2000/svg" width="122" height="122" viewBox="0 0 122 122">
  <g id="Grupo_566" data-name="Grupo 566">
    <path id="Caminho_111" data-name="Caminho 111" d="M281.4,389.057a61,61,0,1,0,61,61A61,61,0,0,0,281.4,389.057Zm0,117.732a56.73,56.73,0,1,1,56.734-56.73A56.732,56.732,0,0,1,281.4,506.788Z" transform="translate(-220.407 -389.057)" fill="#acacac"/>
  </g>
  <path id="Caminho_221" data-name="Caminho 221" d="M45.832,59.292h.662A15.986,15.986,0,0,0,62.482,43.3V34.311A15.986,15.986,0,0,0,46.494,18.322h-.662A15.992,15.992,0,0,0,29.843,34.311V43.3A15.992,15.992,0,0,0,45.832,59.292ZM31.706,34.9A14.116,14.116,0,0,1,45.819,20.788H46.4A14.111,14.111,0,0,1,60.517,34.9V42.84A14.112,14.112,0,0,1,46.4,56.954h-.584A14.116,14.116,0,0,1,31.706,42.84Z" transform="translate(15.613 -2.707)" fill="#acacac"/>
  <path id="Caminho_222" data-name="Caminho 222" d="M93.648,65.612C92.444,55.154,84.4,53.744,84.4,53.744s-9.769-1.6-13.324-4.774c-1.282-1.144-4.543-5.163-4.543-5.163L55.3,59.128,44.075,43.807s-3.261,4.019-4.543,5.163c-3.555,3.17-13.324,4.774-13.324,4.774s-8.048,1.41-9.252,11.868L15.967,75.8h78.67ZM55.3,73.285H18.672l.95-7.832c1.111-9.65,7.8-10.174,7.8-10.174s7.7-.9,13.36-4.183a26.383,26.383,0,0,0,3.48-3.143l1.083,1.574L55.3,62.658l9.96-13.132,1.081-1.574A26.427,26.427,0,0,0,69.825,51.1c5.658,3.279,13.359,4.183,13.359,4.183s6.686.524,7.8,10.174l.95,7.832Z" transform="translate(6.474 14.078)" fill="#acacac"/>
</svg>
