<svg xmlns="http://www.w3.org/2000/svg" xmlns:xlink="http://www.w3.org/1999/xlink" width="56" height="56" viewBox="0 0 56 56">
  <defs>
    <clipPath id="clip-path">
      <rect width="56" height="56" fill="none"/>
    </clipPath>
  </defs>
  <g id="chamar-terceiro" clip-path="url(#clip-path)">
    <path id="Caminho_54" data-name="Caminho 54" d="M222.286,166.654a.563.563,0,0,0-.607-.212,5.361,5.361,0,0,0-4.111,6.294c.826,5.432,10.964,19.232,22.766,21.046a.6.6,0,0,0,.133.005,4.967,4.967,0,0,0,4.615-4.363.557.557,0,0,0-.266-.555l-6.54-3.995a.565.565,0,0,0-.508-.041l-3.712,1.51a.563.563,0,0,1-.535-.059c-1.137-.793-5.826-4.226-8.454-8.653a.568.568,0,0,1,0-.566l1.911-3.42a.566.566,0,0,0-.036-.61Z" transform="translate(-202.98 -151.921)" fill="#f5842b"/>
    <path id="Caminho_95" data-name="Caminho 95" d="M248.406,389.057a28,28,0,1,0,28,28A28,28,0,0,0,248.406,389.057Zm0,54.041a26.04,26.04,0,1,1,26.042-26.04A26.041,26.041,0,0,1,248.406,443.1Z" transform="translate(-220.407 -389.057)" fill="#acacac"/>
  </g>
</svg>
