<svg xmlns="http://www.w3.org/2000/svg" xmlns:xlink="http://www.w3.org/1999/xlink" width="44.711" height="42.666" viewBox="0 0 44.711 42.666">
  <defs>
    <clipPath id="clip-path">
      <rect width="44.711" height="42.666" fill="none"/>
    </clipPath>
    <linearGradient id="linear-gradient" x1="-0.058" y1="0.146" x2="0.836" y2="0.789" gradientUnits="objectBoundingBox">
      <stop offset="0" stop-color="#DA291C"/>
      <stop offset="1" stop-color="#DA291C"/>
    </linearGradient>
  </defs>
  <g id="conferencia-terceiro-fone" clip-path="url(#clip-path)">
    <g id="conversa">
      <path id="Caminho_250" data-name="Caminho 250" d="M224.45,0h3.617a.659.659,0,1,1,0,1.317H224.45a3.8,3.8,0,0,0-3.792,3.792v7.7A3.8,3.8,0,0,0,224.45,16.6h4.343a.658.658,0,0,1,.3.073l7.415,3.831-.638-3.113a.658.658,0,0,1,.645-.791h3.062a3.8,3.8,0,0,0,3.792-3.792v-7.7a3.8,3.8,0,0,0-3.792-3.792H230.7A.659.659,0,1,1,230.7,0h8.878a5.115,5.115,0,0,1,5.11,5.109v7.7a5.115,5.115,0,0,1-5.11,5.109h-2.255l.752,3.672a.658.658,0,0,1-.948.717l-8.5-4.389H224.45a5.115,5.115,0,0,1-5.11-5.109v-7.7A5.115,5.115,0,0,1,224.45,0Zm0,0" transform="translate(-219.34)" fill="url(#linear-gradient)"/>
      <path id="Caminho_251" data-name="Caminho 251" d="M280.723,80.512a2.2,2.2,0,1,1-2.2-2.2A2.206,2.206,0,0,1,280.723,80.512Zm-3.09,0a.886.886,0,1,0,.886-.886A.887.887,0,0,0,277.633,80.512Zm0,0" transform="translate(-260.309 -71.526)" fill="url(#linear-gradient)"/>
      <path id="Caminho_252" data-name="Caminho 252" d="M404.144,80.512a2.2,2.2,0,1,1,2.2,2.2A2.206,2.206,0,0,1,404.144,80.512Zm3.09,0a.886.886,0,1,0-.886.886A.887.887,0,0,0,407.234,80.512Zm0,0" transform="translate(-399.209 -71.526)" fill="url(#linear-gradient)"/>
      <path id="Caminho_253" data-name="Caminho 253" d="M342.434,78.309a2.2,2.2,0,1,1-2.2,2.2A2.206,2.206,0,0,1,342.434,78.309Zm0,3.09a.886.886,0,1,0-.886-.886A.887.887,0,0,0,342.434,81.4Zm0,0" transform="translate(-329.76 -71.526)" fill="url(#linear-gradient)"/>
    </g>
    <path id="Caminho_73" data-name="Caminho 73" d="M323.74,403a.64.64,0,0,0,.64-.3,5.93,5.93,0,0,0-1.71-8.13c-4.89-3.6-23.6-6.47-34.24,1.34a.521.521,0,0,0-.11.1,5.48,5.48,0,0,0-.19,7,.62.62,0,0,0,.64.22l8.23-2a.59.59,0,0,0,.43-.36l1.72-4.08a.6.6,0,0,1,.47-.37c1.5-.27,7.85-1.25,13.37.15a.65.65,0,0,1,.44.44l1.18,4.17a.65.65,0,0,0,.51.45Z" transform="translate(516.901 123.573) rotate(139)" fill="none" stroke="#DA291C" stroke-linecap="round" stroke-linejoin="round" stroke-width="1"/>
  </g>
</svg>
