<svg id="discador-ativo" xmlns="http://www.w3.org/2000/svg" width="29" height="29" viewBox="0 0 29 29">
  <g id="Elipse_205" data-name="Elipse 205" fill="#da291c" stroke="#DA291C" stroke-width="1">
    <circle cx="14.5" cy="14.5" r="14.5" stroke="none"/>
    <circle cx="14.5" cy="14.5" r="14" fill="none"/>
  </g>
  <g id="Grupo_820" data-name="Grupo 820" transform="translate(0 0.294)">
    <g id="Grupo_289" data-name="Grupo 289" transform="translate(-58 -451.294)">
      <circle id="Elipse_193" data-name="Elipse 193" cx="2" cy="2" r="2" transform="translate(76 457)" fill="#fff"/>
    </g>
    <g id="Grupo_294" data-name="Grupo 294" transform="translate(-58 -446.294)">
      <circle id="Elipse_193-2" data-name="Elipse 193" cx="2" cy="2" r="2" transform="translate(76 457)" fill="#fff"/>
    </g>
    <g id="Grupo_297" data-name="Grupo 297" transform="translate(-58 -441.294)">
      <circle id="Elipse_193-3" data-name="Elipse 193" cx="2" cy="2" r="2" transform="translate(76 457)" fill="#fff"/>
    </g>
    <g id="Grupo_290" data-name="Grupo 290" transform="translate(-63 -451.294)">
      <circle id="Elipse_193-4" data-name="Elipse 193" cx="2" cy="2" r="2" transform="translate(76 457)" fill="#fff"/>
    </g>
    <g id="Grupo_293" data-name="Grupo 293" transform="translate(-63 -446.294)">
      <circle id="Elipse_193-5" data-name="Elipse 193" cx="2" cy="2" r="2" transform="translate(76 457)" fill="#fff"/>
    </g>
    <g id="Grupo_296" data-name="Grupo 296" transform="translate(-63 -441.294)">
      <circle id="Elipse_193-6" data-name="Elipse 193" cx="2" cy="2" r="2" transform="translate(76 457)" fill="#fff"/>
    </g>
    <g id="Grupo_299" data-name="Grupo 299" transform="translate(-63 -436.294)">
      <circle id="Elipse_193-7" data-name="Elipse 193" cx="2" cy="2" r="2" transform="translate(76 457)" fill="#fff"/>
    </g>
    <g id="Grupo_291" data-name="Grupo 291" transform="translate(-69 -451.294)">
      <circle id="Elipse_193-8" data-name="Elipse 193" cx="2" cy="2" r="2" transform="translate(76 457)" fill="#fff"/>
    </g>
    <g id="Grupo_292" data-name="Grupo 292" transform="translate(-69 -446.294)">
      <circle id="Elipse_193-9" data-name="Elipse 193" cx="2" cy="2" r="2" transform="translate(76 457)" fill="#fff"/>
    </g>
    <g id="Grupo_295" data-name="Grupo 295" transform="translate(-69 -441.294)">
      <circle id="Elipse_193-10" data-name="Elipse 193" cx="2" cy="2" r="2" transform="translate(76 457)" fill="#fff"/>
    </g>
  </g>
</svg>
