<svg xmlns="http://www.w3.org/2000/svg" xmlns:xlink="http://www.w3.org/1999/xlink" width="115.5" height="115.5" viewBox="0 0 115.5 115.5">
  <defs>
    <clipPath id="clip-path">
      <rect width="115.5" height="115.5" fill="none"/>
    </clipPath>
  </defs>
  <g id="login-fora-da-rede" clip-path="url(#clip-path)">
    <g id="Camada_1-2" data-name="Camada 1-2" transform="translate(0.25 0.25)">
      <path id="Caminho_283" data-name="Caminho 283" d="M41.687,63.57s-13.172,6.723-16.572,9.105a12.142,12.142,0,0,0-5.478,9.894V98.944a.759.759,0,0,1-1.518,0V82.524a13.659,13.659,0,0,1,6.161-11.2c3.612-2.474,16.693-9.105,16.693-9.105a.743.743,0,0,1,1.008.3l.009.018a.773.773,0,0,1-.319,1.032ZM95.363,98.944V82.524a12.141,12.141,0,0,0-5.494-9.894c-3.384-2.337-16.541-9.105-16.556-9.105a.759.759,0,0,1-.341-1.017l.008-.015A.759.759,0,0,1,74,62.174s13.112,6.677,16.693,9.105a13.655,13.655,0,0,1,6.146,11.154V98.944a.759.759,0,0,1-1.518,0ZM36.558,88.321v20.457a.759.759,0,1,1-1.518,0v-20.4a.759.759,0,0,1,.759-.759.773.773,0,0,1,.759.759Zm42.78,0v20.457a.759.759,0,1,1-1.518,0v-20.4a.773.773,0,0,1,.759-.759.759.759,0,0,1,.759.759ZM50.079,53.585V58.79a.759.759,0,1,1-1.518,0V53.585a.759.759,0,0,1,.759-.759A.773.773,0,0,1,50.079,53.585Zm16.981,0V58.35l6.966,3.87a.764.764,0,1,1-.744,1.335l-7.345-4.1-.395-.668V53.585a.773.773,0,0,1,.759-.759A.759.759,0,0,1,67.061,53.585ZM44.191,34.631v7a13.658,13.658,0,1,0,27.316,0V40.109a.773.773,0,0,1,.759-.759.759.759,0,0,1,.759.759v1.518a15.176,15.176,0,1,1-30.351,0v-7a.773.773,0,0,1,.759-.759A.759.759,0,0,1,44.191,34.631Zm-2.079.152.121-.759a6.915,6.915,0,0,0,.971,0c1.518,0,3.035-.319,3.035-1.882V29.182c0-1.9.379-4.188,2.807-4.188H61.324a4.144,4.144,0,0,0,2.838-1.108c1.518-1.518,1.639-1.7,1.639-1.7a.788.788,0,0,1,.85-.243.758.758,0,0,1,.5.713v2.99h1.518l.759.759v6.753h-.759l.2-.728c0,.212,3.794.47,4.31,2.868v4.689h-.759l.258-.713h.091c.137-.091.622.258.728-1.988V19.2h.015s-.486-4.765-4.765-4.674H51.111c-.349,0-1.76.167-1.76,1.077v2.868l-.759.759H44.54c0,.106-1.518-.319-1.684,3.354v12.14H42.1l.121-.759-.121.759h-.759V22.581c0-4.31,2.686-4.871,3.2-4.871h0v0h3.248V15.676c.152-2.641,3.035-2.6,3.278-2.6H68.639c5.721.076,6.267,6.07,6.267,6.07V37.362c0,2.565-1.305,3.506-2.246,3.506a1.869,1.869,0,0,1-.592-.091l-.516-.728V35.3a29.182,29.182,0,0,0-3.172-1.4l-.577-.744v-6.07H66.287l-.759-.759V22.763h.759l.592.486a24.619,24.619,0,0,1-1.76,1.821,5.587,5.587,0,0,1-3.9,1.518h-.212v0H48.865c-1.123,0-1.2.607-1.29,2.671v2.959c0,3.035-3.035,3.4-4.553,3.4a9.6,9.6,0,0,1-1.2-.076l-.653-.744ZM57.5.759v.759a55.982,55.982,0,1,0,55.967,56V57.5A56.06,56.06,0,0,0,57.5,1.518V0A57.5,57.5,0,1,1,0,57.5H0A57.484,57.484,0,0,1,57.47,0h.03ZM69.246,60.232c-.167,4.462-5.964,6.677-11.609,6.723s-11.108-2.307-11.26-6.723a.759.759,0,1,1,1.518,0c0,2.807,4.355,5.205,9.743,5.205s10.092-2.443,10.107-5.205a.759.759,0,1,1,1.518,0Zm5.114,2.656c-.182,6.222-8.726,9.576-17.194,9.636s-16.481-3.46-16.693-9.636l.5-.668,7.982-4.1a.744.744,0,0,1,1,.31l.012.024a.759.759,0,0,1-.319,1.017l-7.982,4.1-.349-.683h.759c0,4.553,6.9,8.1,15.176,8.119s15.585-3.612,15.585-8.119a.759.759,0,1,1,1.518,0Zm-38.819,34.9L18.666,92.874a.759.759,0,0,1-.516-.941.729.729,0,0,1,.885-.528l.041.012L36.011,96.3a.774.774,0,0,1,.516.941.759.759,0,0,1-.941.516ZM95.97,92.874,79.049,97.761a.743.743,0,0,1-.932-.487l-.009-.029a.759.759,0,0,1,.516-.941l16.981-4.887a.743.743,0,0,1,.932.487l.009.029a.774.774,0,0,1-.565.938ZM51.6,95.606l-.7-.3a5.342,5.342,0,0,1,10.228,2.17,5.2,5.2,0,0,1-.425,2.185,5.342,5.342,0,0,1-4.871,3.172,5.45,5.45,0,0,1-2.17-.455,5.342,5.342,0,0,1-2.716-7.041l.653.273.683.3a3.981,3.981,0,0,0-.319,1.518,3.839,3.839,0,0,0,2.276,3.506,3.925,3.925,0,0,0,1.518.319,3.84,3.84,0,0,0,3.49-2.261,3.8,3.8,0,0,0,.334-1.518A3.839,3.839,0,0,0,57.3,93.967a3.764,3.764,0,0,0-1.518-.334,3.839,3.839,0,0,0-3.506,2.276Zm3.688-6.359V85.711a.759.759,0,0,1,.759-.759.773.773,0,0,1,.759.759v3.566a.759.759,0,1,1-1.518,0ZM64,96.956h3.566a.773.773,0,0,1,.759.759.759.759,0,0,1-.759.759H64a.744.744,0,1,1,0-1.487ZM61.233,91.3l4.674-4.659a.729.729,0,0,1,1.029-.033l.033.033a.759.759,0,0,1,0,1.073l0,0-4.659,4.659a.759.759,0,0,1-1.073,0l0,0a.888.888,0,0,1,0-1.047Z" transform="translate(0)" fill="#da291c" stroke="#DA291C" stroke-width="0.5"/>
    </g>
  </g>
</svg>
