<svg xmlns="http://www.w3.org/2000/svg" xmlns:xlink="http://www.w3.org/1999/xlink" width="68" height="68" viewBox="0 0 68 68">
  <defs>
    <clipPath id="clip-path">
      <rect width="68" height="68" fill="none"/>
    </clipPath>
  </defs>
  <g id="retornar-chamada" clip-path="url(#clip-path)">
    <g id="Layer_1_65_" transform="translate(11.43 13)">
      <g id="Grupo_16" data-name="Grupo 16" transform="translate(0 0)">
        <path id="Caminho_17" data-name="Caminho 17" d="M46.288,19a.976.976,0,0,0-.884-.561H42.515a21.423,21.423,0,1,0-2.508,14.622A1.949,1.949,0,0,0,36.633,31.1a17.559,17.559,0,1,1,1.895-12.669H35.662a.975.975,0,0,0-.75,1.6l4.873,5.847a.975.975,0,0,0,1.5,0l4.873-5.847A.974.974,0,0,0,46.288,19Z" transform="translate(0 -0.894)" fill="#da291c"/>
      </g>
    </g>
    <path id="Caminho_81" data-name="Caminho 81" d="M221.005,166.592a.413.413,0,0,0-.445-.156,3.932,3.932,0,0,0-3.016,4.617c.606,3.984,8.042,14.106,16.7,15.437a.435.435,0,0,0,.1,0,3.643,3.643,0,0,0,3.385-3.2.408.408,0,0,0-.2-.407l-4.8-2.93a.415.415,0,0,0-.373-.03l-2.723,1.108a.413.413,0,0,1-.393-.043,23.278,23.278,0,0,1-6.2-6.347.417.417,0,0,1,0-.415l1.4-2.509a.416.416,0,0,0-.027-.447Z" transform="translate(317.341 -1.91) rotate(135)" fill="#da291c"/>
    <path id="Caminho_113" data-name="Caminho 113" d="M254.406,389.057a34,34,0,1,0,34,34A34,34,0,0,0,254.406,389.057Zm0,65.621a31.62,31.62,0,1,1,31.622-31.62A31.621,31.621,0,0,1,254.406,454.678Z" transform="translate(-220.407 -389.057)" fill="#acacac"/>
  </g>
</svg>
