<svg xmlns="http://www.w3.org/2000/svg" fill="none" aria-hidden="true" class="slds-illustration__svg" viewBox="0 0 468 194"><style>.b{stroke-width:3}.c{stroke-linecap:round}.d{stroke-linejoin:round}.e{stroke:#fbeae9}.f{fill:#fbeae9}.g{stroke:#da281c}</style><g class="e b c"><path d="M222 105.5h19a14.2 14.2 0 0 1 19.4-15.4c3.1 1.4 5.6 3.4 7.2 7 .7 1.5 1.1 2.8 1.4 4" vector-effect="non-scaling-stroke"/><path d="M261 108.5c1-3.6 3.2-6 6.5-7.2 5-1.7 9.6.6 11.4 2.9s2.5 4 2.8 6a19.9 19.9 0 0 1 .3 4.3c4.1-.2 7 .7 8.3 2.5a7.4 7.4 0 0 1 1.3 6.7c-.6 2-2.7 4.8-6.6 4.8h-79m-10-13h65m-83 0h8m-74-58h19a14.2 14.2 0 0 1 19.4-15.4c3.1 1.4 5.6 3.4 7.2 7 .7 1.5 1.1 2.8 1.4 4" vector-effect="non-scaling-stroke"/><path d="M151 60.5c1-3.6 3.2-6 6.5-7.2 5-1.7 9.6.6 11.4 2.9s2.5 4 2.8 6a19.9 19.9 0 0 1 .3 4.3c4.1-.2 7 .7 8.3 2.5a7.4 7.4 0 0 1 1.3 6.8 6.9 6.9 0 0 1-6.6 4.7H96m-10-13h65m-83 0h8m-60 113h450m-464 0h6" vector-effect="non-scaling-stroke"/><path d="M236.5 180l45-36 34 26m-34-25v34m34-24v15-15zm-10 6l10-8 34 27" class="d" vector-effect="non-scaling-stroke"/><path d="M374.5 134v46" vector-effect="non-scaling-stroke"/><path d="M373 148.5h-10.5V130m13.5 25.5h10.5V138m-22 23v7.5h8.5" class="d" vector-effect="non-scaling-stroke"/></g><path d="M105.5 134.5V86a12 12 0 1 1 24 0v28.5h17V101a7 7 0 1 1 14 0v21.5a6 6 0 0 1-6 6h-25v64h-24v-44h-23a6 6 0 0 1-6-6V113a7 7 0 1 1 14 0v21.5h15z" class="f" vector-effect="non-scaling-stroke"/><path fill="#fff" d="M107 84a13 13 0 0 1 6-5.2 12 12 0 0 1 15.3 6c.6 1.5.6 0 0-4.5l-3.7-3.7-5.8-3-5 .8-4.1 1.8-3 3-.9 3.5L107 84z" vector-effect="non-scaling-stroke"/><g class="b g"><path d="M46 192.5h356m6.5 0h9.5M153.5 86v8m5.5 2.7l5.7-5.7m-81.2 7v8m6.5 2.7l5.7-5.7m-19 5.7L71 103m46.5-37v8m7.5 2.7l5.7-5.7m-21 5.7L104 71" class="c" vector-effect="non-scaling-stroke"/><path d="M105.5 134.5V86a12 12 0 1 1 24 0v28.5h17V101a7 7 0 1 1 14 0v21.5a6 6 0 0 1-6 6h-25v64h-24v-44h-23a6 6 0 0 1-6-6V113a7 7 0 1 1 14 0v21.5h15z" vector-effect="non-scaling-stroke"/><path d="M123 154.5h15.5V147a7 7 0 1 1 14 0v15.5a6 6 0 0 1-6 6H123" class="c d f" vector-effect="non-scaling-stroke"/></g><g class="b c d e"><circle cx="64" cy="64" r="45" stroke-dasharray="135 1 1 18" transform="rotate(-130 190 -5.1)" vector-effect="non-scaling-stroke"/><circle cx="64" cy="64" r="33" stroke-dasharray="107 10" transform="rotate(150 196.3 90.3)" vector-effect="non-scaling-stroke"/></g><circle cx="324" cy="47" r="23" class="f" vector-effect="non-scaling-stroke"/><circle cx="324" cy="47" r="23" class="b g" vector-effect="non-scaling-stroke"/></svg>