<svg xmlns="http://www.w3.org/2000/svg" xmlns:xlink="http://www.w3.org/1999/xlink" width="109.5" height="78.5" viewBox="0 0 109.5 78.5">
  <defs>
    <linearGradient id="linear-gradient" x1="0.19" y1="0.114" x2="0.845" y2="0.872" gradientUnits="objectBoundingBox">
      <stop offset="0" stop-color="#d52b1e"/>
      <stop offset="1" stop-color="#009ed3"/>
    </linearGradient>
    <linearGradient id="linear-gradient-2" x1="0.05" y1="0.067" x2="0.887" y2="0.733" xlink:href="#linear-gradient"/>
  </defs>
  <g id="ematendimento" transform="translate(-120 -157.5)">
    <g id="busca_de_cliente" transform="translate(116.992 164.587)">
      <g id="Grupo_88" data-name="Grupo 88" transform="translate(16.008 18.413)">
        <g id="Grupo_87" data-name="Grupo 87">
          <path id="Caminho_109" data-name="Caminho 109" d="M57.1,60.535l-.451-5.326C56.02,49.739,51.813,49,51.813,49l-6.966-2.5-2.376-2.7-.307.42-5.575,7.608-5.574-7.608-.309-.42-2.376,2.7L21.363,49s-4.208.737-4.838,6.206l-.517,5.326Z" transform="translate(-16.008 -21.783)" fill="none" stroke="#d52b1e" stroke-linecap="round" stroke-linejoin="round" stroke-miterlimit="10" stroke-width="2"/>
          <path id="Caminho_110" data-name="Caminho 110" d="M46.926,31.476a8.359,8.359,0,0,1-8.36,8.361H38.22a8.362,8.362,0,0,1-8.361-8.361v-4.7a8.362,8.362,0,0,1,8.361-8.361h.346a8.359,8.359,0,0,1,8.36,8.361Z" transform="translate(-17.846 -18.413)" fill="none" stroke="#d52b1e" stroke-linecap="round" stroke-linejoin="round" stroke-miterlimit="10" stroke-width="2"/>
        </g>
      </g>
    </g>
    <path id="Caminho_111" data-name="Caminho 111" d="M254.406,389.057a34,34,0,1,0,34,34A34,34,0,0,0,254.406,389.057Zm0,65.621a31.62,31.62,0,1,1,31.622-31.62A31.621,31.621,0,0,1,254.406,454.678Z" transform="translate(-100.407 -221.057)" fill="url(#linear-gradient)"/>
    <g id="Grupo_99" data-name="Grupo 99" transform="translate(-108.4 158)">
      <g id="Grupo_90" data-name="Grupo 90" transform="translate(296)">
        <g id="Grupo_89" data-name="Grupo 89" transform="translate(0)">
          <path id="Caminho_112" data-name="Caminho 112" d="M328.4,0H305a9.011,9.011,0,0,0-9,9V27a9.011,9.011,0,0,0,9,9h3.6v7.2a1.8,1.8,0,0,0,1.111,1.663A1.777,1.777,0,0,0,310.4,45a1.8,1.8,0,0,0,1.273-.527L320.145,36H328.4a9.011,9.011,0,0,0,9-9V9A9.011,9.011,0,0,0,328.4,0Zm5.4,27a5.4,5.4,0,0,1-5.4,5.4h-9a1.8,1.8,0,0,0-1.273.527L312.2,38.855V34.2a1.8,1.8,0,0,0-1.8-1.8H305a5.4,5.4,0,0,1-5.4-5.4V9A5.4,5.4,0,0,1,305,3.6h23.4A5.4,5.4,0,0,1,333.8,9Z" transform="translate(-296)" stroke="#f5f6f5" stroke-width="1" fill="url(#linear-gradient-2)"/>
        </g>
      </g>
      <g id="Grupo_92" data-name="Grupo 92" transform="translate(305 9)">
        <g id="Grupo_91" data-name="Grupo 91" transform="translate(0)">
          <rect id="Retângulo_88" data-name="Retângulo 88" width="12.6" height="3.6" stroke="#f5f6f5" stroke-width="1" fill="url(#linear-gradient-2)"/>
        </g>
      </g>
      <g id="Grupo_94" data-name="Grupo 94" transform="translate(321.2 9)">
        <g id="Grupo_93" data-name="Grupo 93" transform="translate(0)">
          <rect id="Retângulo_89" data-name="Retângulo 89" width="7.2" height="3.6" stroke="#f5f6f5" stroke-width="1" fill="url(#linear-gradient-2)"/>
        </g>
      </g>
      <g id="Grupo_96" data-name="Grupo 96" transform="translate(305 16.2)">
        <g id="Grupo_95" data-name="Grupo 95" transform="translate(0)">
          <rect id="Retângulo_90" data-name="Retângulo 90" width="23.4" height="3.6" stroke="#f5f6f5" stroke-width="1" fill="url(#linear-gradient-2)"/>
        </g>
      </g>
      <g id="Grupo_98" data-name="Grupo 98" transform="translate(305 23.4)">
        <g id="Grupo_97" data-name="Grupo 97" transform="translate(0)">
          <rect id="Retângulo_91" data-name="Retângulo 91" width="12.6" height="3.6" stroke="#f5f6f5" stroke-width="1" fill="url(#linear-gradient-2)"/>
        </g>
      </g>
    </g>
  </g>
</svg>
