<svg id="calendar" xmlns="http://www.w3.org/2000/svg" width="20.534" height="21" viewBox="0 0 20.534 21">
  <g id="Grupo_42" data-name="Grupo 42" transform="translate(0)">
    <path id="Caminho_33" data-name="Caminho 33" d="M120.306,258.837a.6.6,0,0,0-.6-.6h-2.08a.6.6,0,0,0-.6.6v2.079a.6.6,0,0,0,.6.6h2.08a.6.6,0,0,0,.6-.6v-2.079Z" transform="translate(-112.409 -247.528)" fill="#1f577b"/>
    <path id="Caminho_34" data-name="Caminho 34" d="M216.941,258.837a.6.6,0,0,0-.6-.6h-2.08a.6.6,0,0,0-.6.6v2.079a.6.6,0,0,0,.6.6h2.08a.6.6,0,0,0,.6-.6Z" transform="translate(-205.038 -247.528)" fill="#1f577b"/>
    <path id="Caminho_35" data-name="Caminho 35" d="M313.569,258.837a.6.6,0,0,0-.6-.6h-2.08a.6.6,0,0,0-.6.6v2.079a.6.6,0,0,0,.6.6h2.08a.6.6,0,0,0,.6-.6Z" transform="translate(-297.661 -247.528)" fill="#1f577b"/>
    <path id="Caminho_36" data-name="Caminho 36" d="M120.306,355.471a.6.6,0,0,0-.6-.6h-2.08a.6.6,0,0,0-.6.6v2.079a.6.6,0,0,0,.6.6h2.08a.6.6,0,0,0,.6-.6v-2.079Z" transform="translate(-112.409 -340.326)" fill="#1f577b"/>
    <path id="Caminho_37" data-name="Caminho 37" d="M216.941,355.471a.6.6,0,0,0-.6-.6h-2.08a.6.6,0,0,0-.6.6v2.079a.6.6,0,0,0,.6.6h2.08a.6.6,0,0,0,.6-.6Z" transform="translate(-205.038 -340.326)" fill="#1f577b"/>
    <path id="Caminho_38" data-name="Caminho 38" d="M313.569,355.471a.6.6,0,0,0-.6-.6h-2.08a.6.6,0,0,0-.6.6v2.079a.6.6,0,0,0,.6.6h2.08a.6.6,0,0,0,.6-.6v-2.079Z" transform="translate(-297.661 -340.326)" fill="#1f577b"/>
    <path id="Caminho_39" data-name="Caminho 39" d="M24.118,54.151v2.461a2.043,2.043,0,0,1-2.079,2.009H20.726a2.054,2.054,0,0,1-2.092-2.009v-2.47H12.722v2.47a2.054,2.054,0,0,1-2.092,2.009H9.318a2.043,2.043,0,0,1-2.079-2.009V54.151a1.86,1.86,0,0,0-1.828,1.822V70.4A1.863,1.863,0,0,0,7.293,72.23h16.77A1.865,1.865,0,0,0,25.945,70.4V55.973A1.86,1.86,0,0,0,24.118,54.151ZM23.508,69.5a.8.8,0,0,1-.814.788H8.626a.8.8,0,0,1-.814-.788v-7.45a.8.8,0,0,1,.814-.789H22.695a.8.8,0,0,1,.814.789V69.5Z" transform="translate(-5.411 -51.23)" fill="#1f577b"/>
    <path id="Caminho_40" data-name="Caminho 40" d="M80.442,6.989h1.622a.891.891,0,0,0,.892-.891V.891A.891.891,0,0,0,82.064,0H80.442a.891.891,0,0,0-.892.891V6.1A.891.891,0,0,0,80.442,6.989Z" transform="translate(-76.483)" fill="#1f577b"/>
    <path id="Caminho_41" data-name="Caminho 41" d="M345.35,6.989h1.622a.891.891,0,0,0,.891-.891V.891A.891.891,0,0,0,346.972,0H345.35a.891.891,0,0,0-.892.891V6.1A.891.891,0,0,0,345.35,6.989Z" transform="translate(-330.431)" fill="#1f577b"/>
  </g>
</svg>
