<svg xmlns="http://www.w3.org/2000/svg" width="37.269" height="37.269" viewBox="0 0 37.269 37.269">
  <g id="chamada-ocupado-cliente" transform="translate(-172.731 -145)">
    <g id="busca_de_cliente" transform="translate(180.703 153)">
      <g id="Grupo_88" data-name="Grupo 88" transform="translate(0 0)">
        <g id="Grupo_87" data-name="Grupo 87">
          <path id="Caminho_109" data-name="Caminho 109" d="M38.531,52.975l-.247-2.919a3.583,3.583,0,0,0-2.652-3.4l-3.818-1.368-1.3-1.48-.168.23-3.056,4.17-3.055-4.17-.169-.23-1.3,1.48-3.818,1.368a3.582,3.582,0,0,0-2.651,3.4l-.283,2.919Z" transform="translate(-16.008 -31.736)" fill="none" stroke="#ababaf" stroke-linecap="round" stroke-linejoin="round" stroke-miterlimit="10" stroke-width="1"/>
          <path id="Caminho_110" data-name="Caminho 110" d="M39.213,25.572a4.581,4.581,0,0,1-4.582,4.582h-.19a4.583,4.583,0,0,1-4.582-4.582V23a4.583,4.583,0,0,1,4.582-4.582h.19A4.581,4.581,0,0,1,39.213,23Z" transform="translate(-23.275 -18.413)" fill="none" stroke="#ababaf" stroke-linecap="round" stroke-linejoin="round" stroke-miterlimit="10" stroke-width="1"/>
        </g>
      </g>
    </g>
    <path id="Caminho_123" data-name="Caminho 123" d="M239.041,389.057a18.634,18.634,0,1,0,18.635,18.635A18.635,18.635,0,0,0,239.041,389.057Zm0,35.965a17.33,17.33,0,1,1,17.331-17.33A17.331,17.331,0,0,1,239.041,425.022Z" transform="translate(-47.676 -244.057)" fill="#ababaf"/>
  </g>
</svg>
