<svg xmlns="http://www.w3.org/2000/svg" xmlns:xlink="http://www.w3.org/1999/xlink" width="34" height="34" viewBox="0 0 34 34">
  <defs>
    <linearGradient id="linear-gradient" x1="0.216" y1="0.1" x2="0.817" y2="0.864" gradientUnits="objectBoundingBox">
      <stop offset="0" stop-color="#DA291C"/>
      <stop offset="1" stop-color="#DA291C"/>
    </linearGradient>
  </defs>
  <g id="chamada-mudo-active" transform="translate(-259 -370)">
    <circle id="Elipse_163" data-name="Elipse 163" cx="17" cy="17" r="17" transform="translate(259 370)" fill="url(#linear-gradient)"/>
    <g id="microphone-black-shape" transform="translate(193.474 375.161)">
      <g id="Grupo_82" data-name="Grupo 82" transform="translate(73.087)">
        <path id="Caminho_89" data-name="Caminho 89" d="M91.133,183.027a1.019,1.019,0,0,0-1.736.717v2.039a7.136,7.136,0,0,1-14.272,0v-2.039a1.019,1.019,0,0,0-2.039,0v2.039a9.174,9.174,0,0,0,8.155,9.111V197H77.165a1.02,1.02,0,0,0,0,2.039H87.358a1.02,1.02,0,0,0,0-2.039H83.281v-2.1a9.175,9.175,0,0,0,8.155-9.111v-2.039A.979.979,0,0,0,91.133,183.027Z" transform="translate(-73.087 -174.53)" fill="#fff"/>
        <g id="Grupo_84" data-name="Grupo 84" transform="translate(-161.558 -408.163)">
          <path id="Caminho_102" data-name="Caminho 102" d="M175,408.858c-.1-.119-.188-.249-.3-.358a5.075,5.075,0,0,0-7.178-.021l-.022.021a4.909,4.909,0,0,0-1.5,3.6v5.759Z" fill="#fff"/>
          <path id="Caminho_103" data-name="Caminho 103" d="M166.064,420.909a5.094,5.094,0,0,0,5.033,4.446v-.006a5.111,5.111,0,0,0,5.1-5.1V412.1a4.864,4.864,0,0,0-.143-1.181Z" fill="#fff"/>
        </g>
      </g>
    </g>
  </g>
</svg>
