<svg xmlns="http://www.w3.org/2000/svg" width="24" height="24" viewBox="0 0 24 24">
  <g id="cti-cancel-meeting" transform="translate(-1127 -173)">
    <g id="Elipse_172" data-name="Elipse 172" transform="translate(1127 173)" fill="#fafafb" stroke="#2d2926" stroke-width="1">
      <circle cx="12" cy="12" r="12" stroke="none"/>
      <circle cx="12" cy="12" r="11.5" fill="none"/>
    </g>
    <g id="Caminho_244" data-name="Caminho 244" transform="translate(1148.328 194.04) rotate(180)" fill="none">
      <path d="M9.164,0A9.164,9.164,0,1,1,0,9.164,9.164,9.164,0,0,1,9.164,0Z" stroke="none"/>
      <path d="M 9.163987159729004 0.9999980926513672 C 4.662346839904785 0.9999980926513672 0.9999980926513672 4.662358283996582 0.9999980926513672 9.163998603820801 C 0.9999980926513672 13.6656379699707 4.662346839904785 17.32799911499023 9.163987159729004 17.32799911499023 C 13.66562652587891 17.32799911499023 17.32797622680664 13.6656379699707 17.32797622680664 9.163998603820801 C 17.32797622680664 4.662358283996582 13.66562652587891 0.9999980926513672 9.163987159729004 0.9999980926513672 M 9.163987159729004 -1.9073486328125e-06 C 14.22511672973633 -1.9073486328125e-06 18.32797622680664 4.102858543395996 18.32797622680664 9.163998603820801 C 18.32797622680664 14.22513866424561 14.22511672973633 18.32799911499023 9.163987159729004 18.32799911499023 C 4.10285758972168 18.32799911499023 -1.9073486328125e-06 14.22513866424561 -1.9073486328125e-06 9.163998603820801 C -1.9073486328125e-06 4.102858543395996 4.10285758972168 -1.9073486328125e-06 9.163987159729004 -1.9073486328125e-06 Z" stroke="none" fill="#da291c"/>
    </g>
    <line id="Linha_109" data-name="Linha 109" x1="8.625" y2="8.625" transform="translate(1134.5 180.833)" fill="none" stroke="#da291c" stroke-linecap="round" stroke-width="1.5"/>
    <line id="Linha_110" data-name="Linha 110" x1="8.625" y1="8.625" transform="translate(1134.5 180.833)" fill="none" stroke="#da291c" stroke-linecap="round" stroke-width="1.5"/>
  </g>
</svg>
