<svg xmlns="http://www.w3.org/2000/svg" width="14.587" height="16.172" viewBox="0 0 14.587 16.172">
  <g id="login-user" transform="translate(-1.409 -36.526)">
    <g id="Camada_1" data-name="Camada 1" transform="translate(1.91 37.073)">
      <path id="Caminho_204" data-name="Caminho 204" d="M13.823,47.584V45.119a2.031,2.031,0,0,0-1.542-1.966l-3.551-1V40.21" transform="translate(-0.237 -32.459)" fill="none" stroke="#5b5b5b" stroke-linecap="round" stroke-linejoin="round" stroke-width="1"/>
      <path id="Caminho_205" data-name="Caminho 205" d="M6,40.21v1.944L2.42,43.11A2.031,2.031,0,0,0,.91,45.119v2.465" transform="translate(-0.91 -32.459)" fill="none" stroke="#5b5b5b" stroke-linecap="round" stroke-linejoin="round" stroke-width="1"/>
      <path id="Caminho_206" data-name="Caminho 206" d="M7.443,41.454h0C5.564,41.454,4,39.249,4,37.338v-.673a3.4,3.4,0,1,1,6.788,0v.673C10.832,39.249,9.311,41.454,7.443,41.454Z" transform="translate(-0.644 -33.073)" fill="none" stroke="#5b5b5b" stroke-linecap="round" stroke-linejoin="round" stroke-width="1"/>
    </g>
  </g>
</svg>
