<svg xmlns="http://www.w3.org/2000/svg" width="69.482" height="45.145" viewBox="0 0 69.482 45.145">
  <g id="reuniao-desligar-terceiro" transform="translate(-131.29 -359.719)">
    <g id="Grupo_81" data-name="Grupo 81" transform="translate(132 360.438)">
      <path id="Caminho_73" data-name="Caminho 73" d="M5.311.258a.623.623,0,0,0-.67-.235A5.925,5.925,0,0,0,.1,6.98c.913,6,12.118,21.255,25.162,23.26a.656.656,0,0,0,.147.006,5.49,5.49,0,0,0,5.1-4.823.615.615,0,0,0-.295-.614l-7.229-4.415a.625.625,0,0,0-.562-.046l-4.1,1.669a.622.622,0,0,1-.592-.065c-1.257-.877-6.439-4.671-9.344-9.564a.627.627,0,0,1-.005-.626l2.112-3.78a.626.626,0,0,0-.04-.674Z" transform="translate(42.964 21.388) rotate(135)" fill="none" stroke="#DA291C" stroke-linecap="round" stroke-linejoin="round" stroke-width="1"/>
      <g id="Caminho_91" data-name="Caminho 91" transform="translate(30.979 43.04) rotate(180)" fill="#ababaf">
        <path d="M 9.163987159729004 17.82799911499023 C 4.38664722442627 17.82799911499023 0.4999971687793732 13.94134902954102 0.4999971687793732 9.163998603820801 C 0.4999971687793732 4.386648654937744 4.38664722442627 0.4999985992908478 9.163987159729004 0.4999985992908478 C 13.94132709503174 0.4999985992908478 17.82797622680664 4.386648654937744 17.82797622680664 9.163998603820801 C 17.82797622680664 13.94134902954102 13.94132709503174 17.82799911499023 9.163987159729004 17.82799911499023 Z" stroke="none"/>
        <path d="M 9.163987159729004 0.9999980926513672 C 4.662346839904785 0.9999980926513672 0.9999980926513672 4.662358283996582 0.9999980926513672 9.163998603820801 C 0.9999980926513672 13.6656379699707 4.662346839904785 17.32799911499023 9.163987159729004 17.32799911499023 C 13.66562652587891 17.32799911499023 17.32797622680664 13.6656379699707 17.32797622680664 9.163998603820801 C 17.32797622680664 4.662358283996582 13.66562652587891 0.9999980926513672 9.163987159729004 0.9999980926513672 M 9.163987159729004 -1.9073486328125e-06 C 14.22511672973633 -1.9073486328125e-06 18.32797622680664 4.102858543395996 18.32797622680664 9.163998603820801 C 18.32797622680664 14.22513866424561 14.22511672973633 18.32799911499023 9.163987159729004 18.32799911499023 C 4.10285758972168 18.32799911499023 -1.9073486328125e-06 14.22513866424561 -1.9073486328125e-06 9.163998603820801 C -1.9073486328125e-06 4.102858543395996 4.10285758972168 -1.9073486328125e-06 9.163987159729004 -1.9073486328125e-06 Z" stroke="none" fill="#ababaf"/>
      </g>
      <line id="Linha_34" data-name="Linha 34" x1="8.625" y2="8.625" transform="translate(17.772 29.833)" fill="none" stroke="#fff" stroke-linecap="round" stroke-width="2"/>
      <line id="Linha_66" data-name="Linha 66" x1="8.625" y1="8.625" transform="translate(17.772 29.833)" fill="none" stroke="#fff" stroke-linecap="round" stroke-width="2"/>
    </g>
    <g id="busca_de_cliente" transform="translate(174 379.589)">
      <g id="Grupo_88" data-name="Grupo 88" transform="translate(0 0)">
        <g id="Grupo_87" data-name="Grupo 87">
          <path id="Caminho_109" data-name="Caminho 109" d="M42.28,54.5l-.288-3.4c-.4-3.5-3.093-3.967-3.093-3.967l-4.453-1.6-1.519-1.726-.2.268-3.564,4.864L25.6,44.075l-.2-.268-1.519,1.726-4.454,1.6s-2.69.471-3.093,3.967l-.33,3.4Z" transform="translate(-16.008 -29.727)" fill="none" stroke="#DA291C" stroke-linecap="round" stroke-linejoin="round" stroke-miterlimit="10" stroke-width="1"/>
          <path id="Caminho_110" data-name="Caminho 110" d="M40.77,26.764a5.344,5.344,0,0,1-5.345,5.345H35.2a5.346,5.346,0,0,1-5.345-5.345V23.758A5.346,5.346,0,0,1,35.2,18.413h.221a5.344,5.344,0,0,1,5.345,5.345Z" transform="translate(-22.179 -18.413)" fill="none" stroke="#DA291C" stroke-linecap="round" stroke-linejoin="round" stroke-miterlimit="10" stroke-width="1"/>
        </g>
      </g>
    </g>
  </g>
</svg>
