<svg xmlns="http://www.w3.org/2000/svg" width="20.712" height="19.815" viewBox="0 0 20.712 19.815">
  <g id="user-company" transform="translate(-4.297 16.452)">
    <g id="Grupo_120" data-name="Grupo 120" transform="translate(-4.768 -15.62)">
      <g id="Grupo_119" data-name="Grupo 119" transform="translate(5.206)">
        <g id="commercial-buldings" transform="translate(3.859 -9.693)">
          <g id="Grupo_123" data-name="Grupo 123" transform="translate(0 8.861)">
            <path id="Caminho_180" data-name="Caminho 180" d="M20.095,27.443h-.617V11.12a2.167,2.167,0,0,0-2.056-2.259H11.769A2.167,2.167,0,0,0,9.713,11.12v3a2.244,2.244,0,0,0-.514-.066H3.546A1.964,1.964,0,0,0,1.49,15.9V27.443H.617a.617.617,0,0,0,0,1.234H20.095a.617.617,0,1,0,0-1.233ZM3.135,15.9c0-.06.144-.208.411-.208H9.2c.267,0,.411.148.411.208V27.443H3.135Zm8.223-4.785c0-.362.217-.614.411-.614h5.653c.194,0,.411.252.411.614V27.443H11.358Z" transform="translate(0 -8.861)" fill="#831911"/>
            <path id="Caminho_181" data-name="Caminho 181" d="M238.552,55.12h-1.017a.6.6,0,0,0-.6.6v1.017a.6.6,0,0,0,.6.6h1.017a.6.6,0,0,0,.6-.6V55.715A.6.6,0,0,0,238.552,55.12Z" transform="translate(-224.955 -52.78)" fill="#831911"/>
            <path id="Caminho_182" data-name="Caminho 182" d="M238.552,112.02h-1.017a.6.6,0,0,0-.6.6v1.017a.6.6,0,0,0,.6.6h1.017a.6.6,0,0,0,.6-.6v-1.017A.6.6,0,0,0,238.552,112.02Z" transform="translate(-224.955 -106.802)" fill="#831911"/>
            <path id="Caminho_183" data-name="Caminho 183" d="M238.552,168.92h-1.017a.6.6,0,0,0-.6.6v1.017a.6.6,0,0,0,.6.6h1.017a.6.6,0,0,0,.6-.6v-1.017A.6.6,0,0,0,238.552,168.92Z" transform="translate(-224.955 -160.824)" fill="#831911"/>
            <path id="Caminho_184" data-name="Caminho 184" d="M298.159,55.12h-1.017a.6.6,0,0,0-.6.6v1.017a.6.6,0,0,0,.6.6h1.017a.6.6,0,0,0,.6-.6V55.715A.6.6,0,0,0,298.159,55.12Z" transform="translate(-281.547 -52.78)" fill="#831911"/>
            <path id="Caminho_185" data-name="Caminho 185" d="M298.159,112.02h-1.017a.6.6,0,0,0-.6.6v1.017a.6.6,0,0,0,.6.6h1.017a.6.6,0,0,0,.6-.6v-1.017A.6.6,0,0,0,298.159,112.02Z" transform="translate(-281.547 -106.802)" fill="#831911"/>
            <path id="Caminho_186" data-name="Caminho 186" d="M298.159,168.92h-1.017a.6.6,0,0,0-.6.6v1.017a.6.6,0,0,0,.6.6h1.017a.6.6,0,0,0,.6-.6v-1.017A.6.6,0,0,0,298.159,168.92Z" transform="translate(-281.547 -160.824)" fill="#831911"/>
            <path id="Caminho_187" data-name="Caminho 187" d="M238.552,225.82h-1.017a.6.6,0,0,0-.6.6v1.017a.6.6,0,0,0,.6.6h1.017a.6.6,0,0,0,.6-.6v-1.017A.6.6,0,0,0,238.552,225.82Z" transform="translate(-224.955 -214.846)" fill="#831911"/>
            <path id="Caminho_188" data-name="Caminho 188" d="M238.552,282.72h-1.017a.6.6,0,0,0-.6.6v1.017a.6.6,0,0,0,.6.6h1.017a.6.6,0,0,0,.6-.6v-1.017A.6.6,0,0,0,238.552,282.72Z" transform="translate(-224.955 -268.868)" fill="#831911"/>
            <path id="Caminho_189" data-name="Caminho 189" d="M298.159,225.82h-1.017a.6.6,0,0,0-.6.6v1.017a.6.6,0,0,0,.6.6h1.017a.6.6,0,0,0,.6-.6v-1.017A.6.6,0,0,0,298.159,225.82Z" transform="translate(-281.547 -214.846)" fill="#831911"/>
            <path id="Caminho_190" data-name="Caminho 190" d="M298.159,282.72h-1.017a.6.6,0,0,0-.6.6v1.017a.6.6,0,0,0,.6.6h1.017a.6.6,0,0,0,.6-.6v-1.017A.6.6,0,0,0,298.159,282.72Z" transform="translate(-281.547 -268.868)" fill="#831911"/>
            <path id="Caminho_191" data-name="Caminho 191" d="M75.981,168.92H74.964a.6.6,0,0,0-.6.6v1.017a.6.6,0,0,0,.6.6h1.017a.6.6,0,0,0,.6-.6v-1.017A.6.6,0,0,0,75.981,168.92Z" transform="translate(-70.607 -160.824)" fill="#831911"/>
            <path id="Caminho_192" data-name="Caminho 192" d="M135.587,168.92H134.57a.6.6,0,0,0-.6.6v1.017a.6.6,0,0,0,.6.6h1.017a.6.6,0,0,0,.6-.6v-1.017A.6.6,0,0,0,135.587,168.92Z" transform="translate(-127.198 -160.824)" fill="#831911"/>
            <path id="Caminho_193" data-name="Caminho 193" d="M75.981,225.82H74.964a.6.6,0,0,0-.6.6v1.017a.6.6,0,0,0,.6.6h1.017a.6.6,0,0,0,.6-.6v-1.017A.6.6,0,0,0,75.981,225.82Z" transform="translate(-70.607 -214.846)" fill="#831911"/>
            <path id="Caminho_194" data-name="Caminho 194" d="M75.981,282.72H74.964a.6.6,0,0,0-.6.6v1.017a.6.6,0,0,0,.6.6h1.017a.6.6,0,0,0,.6-.6v-1.017A.6.6,0,0,0,75.981,282.72Z" transform="translate(-70.607 -268.868)" fill="#831911"/>
            <path id="Caminho_195" data-name="Caminho 195" d="M135.587,225.82H134.57a.6.6,0,0,0-.6.6v1.017a.6.6,0,0,0,.6.6h1.017a.6.6,0,0,0,.6-.6v-1.017A.6.6,0,0,0,135.587,225.82Z" transform="translate(-127.198 -214.846)" fill="#831911"/>
            <path id="Caminho_196" data-name="Caminho 196" d="M135.587,282.72H134.57a.6.6,0,0,0-.6.6v1.017a.6.6,0,0,0,.6.6h1.017a.6.6,0,0,0,.6-.6v-1.017A.6.6,0,0,0,135.587,282.72Z" transform="translate(-127.198 -268.868)" fill="#831911"/>
          </g>
        </g>
      </g>
    </g>
  </g>
</svg>
