<svg xmlns="http://www.w3.org/2000/svg" width="13" height="11.999" viewBox="0 0 13 11.999">
  <path id="transferencia-selecao-final" d="M342.322,416.275h-7.258l2.479-2.479a1.3,1.3,0,0,0-1.839-1.839l-4.692,4.692-.009.006c-.009.009-.012.022-.02.03a1.306,1.306,0,0,0-.258.39c-.006.013-.008.027-.013.04a1.287,1.287,0,0,0-.089.458v0h0v0a1.269,1.269,0,0,0,.089.458c.005.013.007.027.013.04a1.307,1.307,0,0,0,.258.39c.008.009.011.021.02.03l.009.006L335.7,423.2a1.3,1.3,0,1,0,1.839-1.839l-2.479-2.479h7.258a1.3,1.3,0,1,0,0-2.6Z" transform="translate(343.623 423.576) rotate(180)" fill="#fff"/>
</svg>
