<svg xmlns="http://www.w3.org/2000/svg" xmlns:xlink="http://www.w3.org/1999/xlink" width="29.217" height="29.217" viewBox="0 0 29.217 29.217">
  <defs>
    <clipPath id="clip-path">
      <rect width="29.217" height="29.217" fill="none"/>
    </clipPath>
  </defs>
  <g id="adicinar-linha-off" clip-path="url(#clip-path)">
    <g id="Caminho_254" data-name="Caminho 254" fill="none">
      <path d="M14.609,0A14.609,14.609,0,0,1,29.217,14.609a14.755,14.755,0,0,1-3.023,8.9,14.447,14.447,0,0,1-11.585,5.708A14.609,14.609,0,1,1,14.609,0Z" stroke="none"/>
      <path d="M 14.60870170593262 0.9999961853027344 C 10.97369194030762 0.9999961853027344 7.556241989135742 2.415546417236328 4.98590087890625 4.985895156860352 C 2.415552139282227 7.556236267089844 1.000001907348633 10.97368621826172 1.000001907348633 14.60869598388672 C 1.000001907348633 18.24370574951172 2.415552139282227 21.66115570068359 4.98590087890625 24.23149490356445 C 7.556241989135742 26.80184555053711 10.97369194030762 28.2173957824707 14.60870170593262 28.2173957824707 C 16.76520156860352 28.2173957824707 18.91562271118164 27.70476531982422 20.82748031616211 26.73493576049805 C 22.65348052978516 25.80865669250488 24.23078155517578 24.48807525634766 25.38981246948242 22.91466522216797 C 27.26606178283691 20.37623596191406 28.2174015045166 17.58170700073242 28.2174015045166 14.60869598388672 C 28.2174015045166 10.97368621826172 26.80185127258301 7.556236267089844 24.23150253295898 4.985895156860352 C 21.66116142272949 2.415546417236328 18.24371147155762 0.9999961853027344 14.60870170593262 0.9999961853027344 M 14.60870170593262 -3.814697265625e-06 C 22.67686080932617 -3.814697265625e-06 29.2174015045166 6.540536880493164 29.2174015045166 14.60869598388672 C 29.2174015045166 17.85208511352539 28.16043090820313 20.84860610961914 26.1939811706543 23.50906562805176 C 23.71196174621582 26.87845611572266 19.4334716796875 29.2173957824707 14.60870170593262 29.2173957824707 C 6.540542602539063 29.2173957824707 1.9073486328125e-06 22.67685699462891 1.9073486328125e-06 14.60869598388672 C 1.9073486328125e-06 6.540536880493164 6.540542602539063 -3.814697265625e-06 14.60870170593262 -3.814697265625e-06 Z" stroke="none" fill="#ababaf"/>
    </g>
    <rect id="Ret창ngulo_151" data-name="Ret창ngulo 151" width="4.6" height="17.3" transform="translate(11.913 6)" fill="#ababaf"/>
    <rect id="Ret창ngulo_152" data-name="Ret창ngulo 152" width="4.6" height="17.3" transform="translate(22.863 12.35) rotate(90)" fill="#ababaf"/>
  </g>
</svg>
