<svg id="cliente-ativo" xmlns="http://www.w3.org/2000/svg" width="109.5" height="78.5" viewBox="0 0 109.5 78.5">
  <g id="Grupo_99" data-name="Grupo 99" transform="translate(-228.4 0.5)">
    <g id="Grupo_90" data-name="Grupo 90" transform="translate(296)">
      <g id="Grupo_89" data-name="Grupo 89" transform="translate(0)">
        <path id="Caminho_112" data-name="Caminho 112" d="M328.4,0H305a9.011,9.011,0,0,0-9,9V27a9.011,9.011,0,0,0,9,9h3.6v7.2a1.8,1.8,0,0,0,1.111,1.663A1.777,1.777,0,0,0,310.4,45a1.8,1.8,0,0,0,1.273-.527L320.145,36H328.4a9.011,9.011,0,0,0,9-9V9A9.011,9.011,0,0,0,328.4,0Zm5.4,27a5.4,5.4,0,0,1-5.4,5.4h-9a1.8,1.8,0,0,0-1.273.527L312.2,38.855V34.2a1.8,1.8,0,0,0-1.8-1.8H305a5.4,5.4,0,0,1-5.4-5.4V9A5.4,5.4,0,0,1,305,3.6h23.4A5.4,5.4,0,0,1,333.8,9Z" transform="translate(-296)" fill="#da291c" stroke="#f5f6f5" stroke-width="1"/>
      </g>
    </g>
    <g id="Grupo_92" data-name="Grupo 92" transform="translate(305 9)">
      <g id="Grupo_91" data-name="Grupo 91" transform="translate(0)">
        <rect id="Retângulo_88" data-name="Retângulo 88" width="12.6" height="3.6" fill="#da291c" stroke="#f5f6f5" stroke-width="1"/>
      </g>
    </g>
    <g id="Grupo_94" data-name="Grupo 94" transform="translate(321.2 9)">
      <g id="Grupo_93" data-name="Grupo 93" transform="translate(0)">
        <rect id="Retângulo_89" data-name="Retângulo 89" width="7.2" height="3.6" fill="#da291c" stroke="#f5f6f5" stroke-width="1"/>
      </g>
    </g>
    <g id="Grupo_96" data-name="Grupo 96" transform="translate(305 16.2)">
      <g id="Grupo_95" data-name="Grupo 95" transform="translate(0)">
        <rect id="Retângulo_90" data-name="Retângulo 90" width="23.4" height="3.6" fill="#da291c" stroke="#f5f6f5" stroke-width="1"/>
      </g>
    </g>
    <g id="Grupo_98" data-name="Grupo 98" transform="translate(305 23.4)">
      <g id="Grupo_97" data-name="Grupo 97" transform="translate(0)">
        <rect id="Retângulo_91" data-name="Retângulo 91" width="12.6" height="3.6" fill="#da291c" stroke="#f5f6f5" stroke-width="1"/>
      </g>
    </g>
  </g>
  <g id="Grupo_556" data-name="Grupo 556" transform="translate(0 10.5)">
    <path id="Caminho_111" data-name="Caminho 111" d="M254.406,389.057a34,34,0,1,0,34,34A34,34,0,0,0,254.406,389.057Zm0,65.621a31.62,31.62,0,1,1,31.622-31.62A31.621,31.621,0,0,1,254.406,454.678Z" transform="translate(-220.407 -389.057)" fill="#da291c"/>
    <g id="Grupo_143" data-name="Grupo 143" transform="translate(-5.967 -10.322)">
      <path id="Caminho_221" data-name="Caminho 221" d="M39.483,43.023h.4a9.638,9.638,0,0,0,9.639-9.64V27.962a9.638,9.638,0,0,0-9.639-9.64h-.4a9.641,9.641,0,0,0-9.64,9.64v5.421A9.641,9.641,0,0,0,39.483,43.023Zm-8.2-14.7a8.249,8.249,0,0,1,8.2-8.509h.352a8.386,8.386,0,0,1,8.2,8.665V33.26a8.12,8.12,0,0,1-8.2,8.353h-.352a8.249,8.249,0,0,1-8.2-8.509Z" fill="#da291c"/>
      <path id="Caminho_222" data-name="Caminho 222" d="M62.8,56.953c-.726-6.305-5.578-7.155-5.578-7.155s-5.89-.967-8.033-2.878c-.773-.69-2.739-3.113-2.739-3.113l-6.769,9.237-6.769-9.237s-1.966,2.423-2.739,3.113c-2.143,1.911-8.033,2.878-8.033,2.878s-4.852.85-5.578,7.155l-.6,6.141H63.4ZM39.682,61.579H17.6l.573-4.722c.67-5.818,4.7-6.134,4.7-6.134A24.384,24.384,0,0,0,30.926,48.2a15.906,15.906,0,0,0,2.1-1.9l.653.949,6.005,7.917,6.005-7.917.652-.949a15.932,15.932,0,0,0,2.1,1.9,24.381,24.381,0,0,0,8.054,2.522s4.031.316,4.7,6.134l.573,4.722Z" fill="#da291c"/>
    </g>
  </g>
</svg>
