<svg xmlns="http://www.w3.org/2000/svg" xmlns:xlink="http://www.w3.org/1999/xlink" width="39.573" height="35.93" viewBox="0 0 39.573 35.93">
  <defs>
    <clipPath id="clip-path">
      <rect width="39.573" height="35.93" fill="none"/>
    </clipPath>
  </defs>
  <g id="conferencia-terceiro-desligar" clip-path="url(#clip-path)">
    <g id="Elipse_172" data-name="Elipse 172" transform="translate(7.206 11.93)" fill="#fafafb" stroke="#DA291C" stroke-width="1">
      <circle cx="12" cy="12" r="12" stroke="none"/>
      <circle cx="12" cy="12" r="11.5" fill="none"/>
    </g>
    <g id="Caminho_244" data-name="Caminho 244" transform="translate(28.534 32.97) rotate(180)" fill="none">
      <path d="M9.164,0A9.164,9.164,0,1,1,0,9.164,9.164,9.164,0,0,1,9.164,0Z" stroke="none"/>
      <path d="M 9.163987159729004 0.9999980926513672 C 4.662346839904785 0.9999980926513672 0.9999980926513672 4.662358283996582 0.9999980926513672 9.163998603820801 C 0.9999980926513672 13.6656379699707 4.662346839904785 17.32799911499023 9.163987159729004 17.32799911499023 C 13.66562652587891 17.32799911499023 17.32797622680664 13.6656379699707 17.32797622680664 9.163998603820801 C 17.32797622680664 4.662358283996582 13.66562652587891 0.9999980926513672 9.163987159729004 0.9999980926513672 M 9.163987159729004 -1.9073486328125e-06 C 14.22511672973633 -1.9073486328125e-06 18.32797622680664 4.102858543395996 18.32797622680664 9.163998603820801 C 18.32797622680664 14.22513866424561 14.22511672973633 18.32799911499023 9.163987159729004 18.32799911499023 C 4.10285758972168 18.32799911499023 -1.9073486328125e-06 14.22513866424561 -1.9073486328125e-06 9.163998603820801 C -1.9073486328125e-06 4.102858543395996 4.10285758972168 -1.9073486328125e-06 9.163987159729004 -1.9073486328125e-06 Z" stroke="none" fill="#DA291C"/>
    </g>
    <line id="Linha_109" data-name="Linha 109" x1="8.625" y2="8.625" transform="translate(14.706 19.763)" fill="none" stroke="#DA291C" stroke-linecap="round" stroke-width="1.5"/>
    <line id="Linha_110" data-name="Linha 110" x1="8.625" y1="8.625" transform="translate(14.706 19.763)" fill="none" stroke="#DA291C" stroke-linecap="round" stroke-width="1.5"/>
    <path id="Caminho_73" data-name="Caminho 73" d="M323.74,403a.64.64,0,0,0,.64-.3,5.93,5.93,0,0,0-1.71-8.13c-4.89-3.6-23.6-6.47-34.24,1.34a.521.521,0,0,0-.11.1,5.48,5.48,0,0,0-.19,7,.62.62,0,0,0,.64.22l8.23-2a.59.59,0,0,0,.43-.36l1.72-4.08a.6.6,0,0,1,.47-.37c1.5-.27,7.85-1.25,13.37.15a.65.65,0,0,1,.44.44l1.18,4.17a.65.65,0,0,0,.51.45Z" transform="translate(-286.253 -390.44)" fill="none" stroke="#DA291C" stroke-linecap="round" stroke-linejoin="round" stroke-width="1"/>
  </g>
</svg>
