<svg xmlns="http://www.w3.org/2000/svg" width="45.637" height="43.549" viewBox="0 0 45.637 43.549">
  <g id="Grupo_384" data-name="Grupo 384" transform="translate(-1210 -762)">
    <g id="conversa" transform="translate(1210 762)">
      <path id="Caminho_250" data-name="Caminho 250" d="M224.557,0h3.693a.672.672,0,1,1,0,1.345h-3.693a3.877,3.877,0,0,0-3.872,3.872v7.859a3.877,3.877,0,0,0,3.872,3.872h4.434a.672.672,0,0,1,.309.075l7.571,3.911-.651-3.179a.672.672,0,0,1,.659-.807H240a3.877,3.877,0,0,0,3.872-3.872V5.217A3.877,3.877,0,0,0,240,1.345H230.94a.672.672,0,1,1,0-1.345H240a5.223,5.223,0,0,1,5.217,5.217v7.859A5.223,5.223,0,0,1,240,18.293h-2.3l.768,3.749a.672.672,0,0,1-.968.732l-8.675-4.481h-4.271a5.223,5.223,0,0,1-5.217-5.217V5.217A5.223,5.223,0,0,1,224.557,0Zm0,0" transform="translate(-219.34)" fill="#a7a8aa"/>
      <path id="Caminho_251" data-name="Caminho 251" d="M280.815,80.559a2.25,2.25,0,1,1-2.25-2.25A2.252,2.252,0,0,1,280.815,80.559Zm-3.155,0a.9.9,0,1,0,.9-.9A.906.906,0,0,0,277.661,80.559Zm0,0" transform="translate(-259.973 -71.383)" fill="#a7a8aa"/>
      <path id="Caminho_252" data-name="Caminho 252" d="M404.144,80.559a2.25,2.25,0,1,1,2.25,2.25A2.252,2.252,0,0,1,404.144,80.559Zm3.155,0a.9.9,0,1,0-.9.905A.906.906,0,0,0,407.3,80.559Zm0,0" transform="translate(-399.105 -71.383)" fill="#a7a8aa"/>
      <path id="Caminho_253" data-name="Caminho 253" d="M342.48,78.309a2.25,2.25,0,1,1-2.25,2.25A2.253,2.253,0,0,1,342.48,78.309Zm0,3.155a.905.905,0,1,0-.9-.905A.906.906,0,0,0,342.48,81.464Zm0,0" transform="translate(-329.54 -71.383)" fill="#a7a8aa"/>
    </g>
    <path id="Caminho_73" data-name="Caminho 73" d="M37.555,12.311A.654.654,0,0,0,38.208,12a6.055,6.055,0,0,0-1.746-8.3C31.469.028,12.366-2.9,1.5,5.072a.533.533,0,0,0-.112.1A5.6,5.6,0,0,0,1.2,12.321a.633.633,0,0,0,.654.225l8.4-2.042a.6.6,0,0,0,.439-.368l1.756-4.166a.613.613,0,0,1,.48-.378c1.532-.276,8.015-1.276,13.651.153a.664.664,0,0,1,.449.449l1.2,4.258a.664.664,0,0,0,.521.459Z" transform="translate(1254.771 779.141) rotate(139)" fill="none" stroke="#b1b1b1" stroke-linecap="round" stroke-linejoin="round" stroke-width="1"/>
  </g>
</svg>
