<svg xmlns="http://www.w3.org/2000/svg" xmlns:xlink="http://www.w3.org/1999/xlink" width="73.5" height="75" viewBox="0 0 73.5 75">
  <defs>
    <clipPath id="clip-path">
      <rect width="68" height="68" fill="none"/>
    </clipPath>
  </defs>
  <g id="conference-terceiro-active" transform="translate(-169.5 -195)">
    <g id="Componente_1" data-name="Componente 1" transform="translate(169.5 202)" clip-path="url(#clip-path)">
      <g id="Grupo_244" data-name="Grupo 244" transform="translate(13.5 10.676)">
        <g id="Grupo_243" data-name="Grupo 243" transform="translate(0 0)">
          <path id="Caminho_240" data-name="Caminho 240" d="M58.874,53.5V46.4A5.622,5.622,0,0,0,54.7,40.963l-9.885-2.636V32.846" transform="translate(-20.153 -12.085)" fill="none" stroke="#f5842b" stroke-miterlimit="10" stroke-width="1.5"/>
        </g>
      </g>
      <g id="Grupo_814" data-name="Grupo 814">
        <circle id="Elipse_171" data-name="Elipse 171" cx="33" cy="33" r="33" transform="translate(1 1)" fill="none" stroke="#f5842b" stroke-miterlimit="10" stroke-width="2"/>
        <g id="Grupo_812" data-name="Grupo 812" transform="translate(15.029 10.665)">
          <path id="Caminho_241" data-name="Caminho 241" d="M34.8,32.846v5.481l-9.884,2.636A5.628,5.628,0,0,0,20.737,46.4v7.7" transform="translate(-20.003 -12.085)" fill="none" stroke="#f5842b" stroke-miterlimit="10" stroke-width="1.5"/>
          <path id="Caminho_242" data-name="Caminho 242" d="M39.741,34h0c-5.176,0-9.372-6.071-9.372-11.247V20.882a9.372,9.372,0,0,1,9.372-9.373h0a9.372,9.372,0,0,1,9.371,9.373v1.873C49.112,27.933,44.917,34,39.741,34Z" transform="translate(-20.263 -11.509)" fill="none" stroke="#f5842b" stroke-miterlimit="10" stroke-width="1.5"/>
          <path id="Caminho_516" data-name="Caminho 516" d="M0,0,38.969-.047" transform="translate(0 41.824)" fill="none" stroke="#f5842b" stroke-width="1"/>
        </g>
      </g>
    </g>
    <g id="Elipse_172" data-name="Elipse 172" transform="translate(219 195)" fill="#fafafb" stroke="#2d2926" stroke-width="1">
      <circle cx="12" cy="12" r="12" stroke="none"/>
      <circle cx="12" cy="12" r="11.5" fill="none"/>
    </g>
    <g id="Caminho_244" data-name="Caminho 244" transform="translate(240.328 216.04) rotate(180)" fill="none">
      <path d="M9.164,0A9.164,9.164,0,1,1,0,9.164,9.164,9.164,0,0,1,9.164,0Z" stroke="none"/>
      <path d="M 9.163987159729004 0.9999980926513672 C 4.662346839904785 0.9999980926513672 0.9999980926513672 4.662358283996582 0.9999980926513672 9.163998603820801 C 0.9999980926513672 13.6656379699707 4.662346839904785 17.32799911499023 9.163987159729004 17.32799911499023 C 13.66562652587891 17.32799911499023 17.32797622680664 13.6656379699707 17.32797622680664 9.163998603820801 C 17.32797622680664 4.662358283996582 13.66562652587891 0.9999980926513672 9.163987159729004 0.9999980926513672 M 9.163987159729004 -1.9073486328125e-06 C 14.22511672973633 -1.9073486328125e-06 18.32797622680664 4.102858543395996 18.32797622680664 9.163998603820801 C 18.32797622680664 14.22513866424561 14.22511672973633 18.32799911499023 9.163987159729004 18.32799911499023 C 4.10285758972168 18.32799911499023 -1.9073486328125e-06 14.22513866424561 -1.9073486328125e-06 9.163998603820801 C -1.9073486328125e-06 4.102858543395996 4.10285758972168 -1.9073486328125e-06 9.163987159729004 -1.9073486328125e-06 Z" stroke="none" fill="#da291c"/>
    </g>
    <line id="Linha_109" data-name="Linha 109" x1="8.625" y2="8.625" transform="translate(226.5 202.833)" fill="none" stroke="#da291c" stroke-linecap="round" stroke-width="1.5"/>
    <line id="Linha_110" data-name="Linha 110" x1="8.625" y1="8.625" transform="translate(226.5 202.833)" fill="none" stroke="#da291c" stroke-linecap="round" stroke-width="1.5"/>
  </g>
</svg>
