<svg xmlns="http://www.w3.org/2000/svg" xmlns:xlink="http://www.w3.org/1999/xlink" width="49.5" height="49.5" viewBox="0 0 49.5 49.5">
  <defs>
    <clipPath id="clip-path">
      <rect width="49.5" height="49.5" fill="none"/>
    </clipPath>
  </defs>
  <g id="terceiro-on" clip-path="url(#clip-path)">
    <circle id="Elipse_171" data-name="Elipse 171" cx="24" cy="24" r="24" transform="translate(0.75 0.75)" fill="none" stroke="#f5842b" stroke-miterlimit="10" stroke-width="1.5"/>
    <g id="Grupo_244" data-name="Grupo 244" transform="translate(12.084 7.917)">
      <g id="Grupo_243" data-name="Grupo 243" transform="translate(0 0)">
        <path id="Caminho_240" data-name="Caminho 240" d="M54.316,46.8V42a3.8,3.8,0,0,0-2.82-3.672l-6.68-1.781v-3.7" transform="translate(-28.983 -18.816)" fill="none" stroke="#f5842b" stroke-miterlimit="10" stroke-width="1.5"/>
        <path id="Caminho_241" data-name="Caminho 241" d="M30.238,32.846v3.7l-6.679,1.781A3.8,3.8,0,0,0,20.737,42v5.205" transform="translate(-20.737 -18.816)" fill="none" stroke="#f5842b" stroke-miterlimit="10" stroke-width="1.5"/>
        <path id="Caminho_242" data-name="Caminho 242" d="M36.7,26.709h0c-3.5,0-6.333-4.1-6.333-7.6V17.843A6.333,6.333,0,0,1,36.7,11.509h0a6.333,6.333,0,0,1,6.333,6.334v1.266C43.035,22.608,40.2,26.709,36.7,26.709Z" transform="translate(-24.036 -11.509)" fill="none" stroke="#f5842b" stroke-miterlimit="10" stroke-width="1.5"/>
        <line id="Linha_111" data-name="Linha 111" x2="27" transform="translate(-0.834 28.333)" fill="none" stroke="#f5842b" stroke-width="1"/>
      </g>
    </g>
  </g>
</svg>
