<svg xmlns="http://www.w3.org/2000/svg" xmlns:xlink="http://www.w3.org/1999/xlink" width="29" height="29" viewBox="0 0 29 29">
  <defs>
    <clipPath id="clip-path">
      <rect width="29" height="29" fill="none"/>
    </clipPath>
  </defs>
  <g id="conferencia-off" clip-path="url(#clip-path)">
    <path id="Caminho_225" data-name="Caminho 225" d="M75.214,22.893a4.11,4.11,0,0,0-3.858-3.066H70.343a3.175,3.175,0,1,0-1.819,0h-.507a3.863,3.863,0,0,0-1.968.542,4.141,4.141,0,0,0-1.294,1.216,3.723,3.723,0,0,0-.691-.062h-.792a3.15,3.15,0,0,0,1.356-5.279,3.174,3.174,0,1,0-3.127,5.28h-.779a3.734,3.734,0,0,0-.692.062,4.107,4.107,0,0,0-1.294-1.216,3.86,3.86,0,0,0-1.968-.542H56.25a3.139,3.139,0,0,0,1.333-.777,3.177,3.177,0,1,0-4.493-.013h0a3.146,3.146,0,0,0,1.345.789H53.428a4.1,4.1,0,0,0-3.768,2.787c-.013-.04-.02-.08-.032-.12a16.227,16.227,0,0,1-.15,2.352,14.483,14.483,0,0,0,25.686.706C75.142,24.984,75.209,24.087,75.214,22.893Zm-7.386-4.486h0a2.274,2.274,0,1,1,3.218,0l0,0A2.272,2.272,0,0,1,67.828,18.407Zm-7.717.09a2.274,2.274,0,1,1,2.274,2.273h0A2.274,2.274,0,0,1,60.111,18.5Zm-6.372-.087a2.276,2.276,0,1,1,3.219,0A2.276,2.276,0,0,1,53.739,18.41Zm2.949,12.244a13.527,13.527,0,0,1-4.77-3.808v0h4.77ZM51.255,25.94a13.375,13.375,0,0,1-.987-1.785v-.127a3.234,3.234,0,0,1,3.157-3.3h3.338a3.024,3.024,0,0,1,1.543.423,3.256,3.256,0,0,1,.838.713,4.207,4.207,0,0,0-2.413,3.452l0,.624Zm15.95-.219v5.4a13.326,13.326,0,0,1-9.642-.081V25.016l.017-.075.029-.111.021-.075a3.194,3.194,0,0,1,3-2.278l.086-.05h3.341a3.22,3.22,0,0,1,3.13,2.878.783.783,0,0,0,.018.2Zm.881,5.041V26.846h5A13.519,13.519,0,0,1,68.086,30.762Zm6.426-6.149a13.207,13.207,0,0,1-.771,1.335H68.079V24.642l-.021-.083v-.153l-.041-.121a4.161,4.161,0,0,0-2.192-2.4,3.3,3.3,0,0,1,.647-.733,3.025,3.025,0,0,1,1.543-.424h3.34a3.235,3.235,0,0,1,3.157,3.3Z" transform="translate(-48.028 -4.047)" fill="#acacac"/>
    <path id="Caminho_213" data-name="Caminho 213" d="M341.153,404.388a14.5,14.5,0,1,0,14.5,14.5A14.5,14.5,0,0,0,341.153,404.388Zm0,27.984a13.484,13.484,0,1,1,13.484-13.484A13.484,13.484,0,0,1,341.153,432.372Z" transform="translate(-326.653 -404.388)" fill="#acacac"/>
  </g>
</svg>
