<svg xmlns="http://www.w3.org/2000/svg" width="29" height="29" viewBox="0 0 29 29">
  <g id="Símbolo_4_1" data-name="Símbolo 4 – 1" transform="translate(-191 -450)">
    <path id="Caminho_94" data-name="Caminho 94" d="M271.145,390.054a14.5,14.5,0,1,0,14.5,14.5A14.5,14.5,0,0,0,271.145,390.054Zm0,1.015a13.455,13.455,0,0,1,12.726,17.912,4.113,4.113,0,0,0-3.87-3.1h-1.013a3.176,3.176,0,1,0-1.819,0h-.507a3.863,3.863,0,0,0-1.968.542,4.127,4.127,0,0,0-1.294,1.216,3.769,3.769,0,0,0-.691-.062h-.792a3.14,3.14,0,0,0,1.362-.792h0a3.173,3.173,0,0,0-.006-4.487h0a3.174,3.174,0,1,0-3.127,5.28h-.779a3.78,3.78,0,0,0-.692.062,4.115,4.115,0,0,0-1.294-1.216,3.863,3.863,0,0,0-1.968-.542h-.518a3.144,3.144,0,0,0,1.333-.777,3.177,3.177,0,1,0-4.492-.012,3.142,3.142,0,0,0,1.345.789h-1.008a4.1,4.1,0,0,0-3.768,2.787,13.481,13.481,0,0,1,12.841-17.6Zm5.558,19.544v-.153l-.041-.121a4.159,4.159,0,0,0-2.192-2.4,3.293,3.293,0,0,1,.647-.733,3.02,3.02,0,0,1,1.543-.424H280a3.235,3.235,0,0,1,3.157,3.3v.585a13.3,13.3,0,0,1-.771,1.335h-5.662v-1.306Zm-.232-6.152a2.274,2.274,0,1,1,3.216-3.217h0a2.273,2.273,0,0,1,0,3.216h0A2.273,2.273,0,0,1,276.471,404.46Zm-5.441,2.364h0a2.274,2.274,0,1,1,2.274-2.275h0A2.274,2.274,0,0,1,271.03,406.824Zm-5.652,5.169H259.9a13.43,13.43,0,0,1-.987-1.785v-.127a3.234,3.234,0,0,1,3.157-3.3h3.338a3.029,3.029,0,0,1,1.543.423,3.253,3.253,0,0,1,.838.713,4.207,4.207,0,0,0-2.413,3.452Zm.225-7.533a2.276,2.276,0,1,1,.665-1.608,2.275,2.275,0,0,1-.665,1.608Zm-5.04,8.435h4.77v3.812A13.525,13.525,0,0,1,260.563,412.9Zm5.645,4.2V411.07l.017-.075.029-.111.021-.075a3.194,3.194,0,0,1,3-2.278l.086-.05h3.341a3.22,3.22,0,0,1,3.13,2.878.827.827,0,0,0,.018.205c0,.071,0,.142,0,.211v5.4a13.324,13.324,0,0,1-9.647-.083Zm10.523-.277V412.9h5A13.526,13.526,0,0,1,276.731,416.816Z" transform="translate(-65.645 59.946)" fill="#ababaf"/>
  </g>
</svg>
