<svg id="atendimento-stage-2" xmlns="http://www.w3.org/2000/svg" width="32.206" height="32.214" viewBox="0 0 32.206 32.214">
  <g id="group-4svg" transform="translate(0)">
    <path id="path-2_32_" d="M343.41,176.062a1.854,1.854,0,1,1-1.854-1.854A1.854,1.854,0,0,1,343.41,176.062Z" transform="translate(-320.146 -164.177)" fill="#706e6b"/>
    <path id="path-3_32_" d="M158.248,176.062a1.854,1.854,0,1,1-1.854-1.854A1.854,1.854,0,0,1,158.248,176.062Z" transform="translate(-145.645 -164.177)" fill="#706e6b"/>
    <path id="path-4_32_" d="M16.171,32.214a16.107,16.107,0,1,1,16.1-16.107A16.124,16.124,0,0,1,16.171,32.214Zm0-30.663A14.556,14.556,0,1,0,30.723,16.107,14.57,14.57,0,0,0,16.171,1.552Z" transform="translate(-0.068)" fill="#706e6b"/>
    <line id="Linha_74" data-name="Linha 74" x1="16" transform="translate(7.757 20.25)" fill="none" stroke="#706e6b" stroke-linecap="round" stroke-width="2"/>
  </g>
</svg>
