<svg xmlns="http://www.w3.org/2000/svg" width="29.178" height="27.788" viewBox="0 0 29.178 27.788">
  <g id="mensagem-ativa" transform="translate(0 -12.75)">
    <g id="notifications-on" transform="translate(0 12.75)">
      <path id="Caminho_149" data-name="Caminho 149" d="M7.781,14.973,5.836,13.028A14.65,14.65,0,0,0,0,23.865H2.779A11.482,11.482,0,0,1,7.781,14.973ZM26.4,23.865h2.779a14.511,14.511,0,0,0-5.7-10.837l-1.945,1.945A11.752,11.752,0,0,1,26.4,23.865Zm-2.779.695a8.941,8.941,0,0,0-6.947-8.753v-.973a2.084,2.084,0,1,0-4.168,0v.973A8.941,8.941,0,0,0,5.558,24.56V32.2L2.779,34.981V36.37H26.4V34.981L23.62,32.2ZM14.589,40.538h.556a2.416,2.416,0,0,0,1.945-1.667,2.618,2.618,0,0,0,.278-1.112H11.81A2.787,2.787,0,0,0,14.589,40.538Z" transform="translate(0 -12.75)" fill="#DA291C"/>
    </g>
  </g>
</svg>
