<svg id="cti-claro-meeting" xmlns="http://www.w3.org/2000/svg" width="44" height="44" viewBox="0 0 44 44">
  <path id="Caminho_111" data-name="Caminho 111" d="M242.406,389.057a22,22,0,1,0,22,22A22,22,0,0,0,242.406,389.057Zm0,42.461a20.46,20.46,0,1,1,20.461-20.46A20.461,20.461,0,0,1,242.406,431.518Z" transform="translate(-220.407 -389.057)" fill="#da291c"/>
  <g id="Grupo_143" data-name="Grupo 143" transform="translate(6.448 5.158)">
    <path id="Caminho_221" data-name="Caminho 221" d="M36.058,34.248h.257a6.214,6.214,0,0,0,6.215-6.215v-3.5a6.214,6.214,0,0,0-6.215-6.215h-.257a6.216,6.216,0,0,0-6.215,6.215v3.5A6.216,6.216,0,0,0,36.058,34.248Zm-5.289-9.481a5.318,5.318,0,0,1,5.284-5.486h.227a5.407,5.407,0,0,1,5.289,5.587v3.086a5.235,5.235,0,0,1-5.289,5.386h-.227a5.318,5.318,0,0,1-5.284-5.486Z" transform="translate(-20.896 -18.322)" fill="#da291c"/>
    <path id="Caminho_222" data-name="Caminho 222" d="M46.164,52.283c-.468-4.065-3.6-4.613-3.6-4.613s-3.8-.623-5.179-1.856c-.5-.445-1.766-2.007-1.766-2.007l-4.364,5.956-4.364-5.956s-1.268,1.562-1.766,2.007c-1.382,1.232-5.179,1.856-5.179,1.856s-3.128.548-3.6,4.613l-.384,3.959H46.548ZM31.257,55.266H17.019l.369-3.045c.432-3.751,3.03-3.955,3.03-3.955a15.721,15.721,0,0,0,5.194-1.626,10.255,10.255,0,0,0,1.353-1.222l.421.612,3.872,5.1,3.872-5.1.42-.612A10.272,10.272,0,0,0,36.9,46.64,15.72,15.72,0,0,0,42.1,48.266s2.6.2,3.031,3.955l.369,3.045Z" transform="translate(-15.967 -27.375)" fill="#da291c"/>
  </g>
</svg>
