<svg xmlns="http://www.w3.org/2000/svg" width="32.206" height="32.214" viewBox="0 0 32.206 32.214">
  <g id="happy" transform="translate(-0.068)">
    <g id="Grupo_103" data-name="Grupo 103" transform="translate(0.068)">
      <g id="group-4svg" transform="translate(0)">
        <path id="path-1_32_" d="M142.865,346.443H139.75a6.758,6.758,0,0,1-7-6.464.776.776,0,0,1,.775-.776h15.57a.776.776,0,0,1,.775.776A6.757,6.757,0,0,1,142.865,346.443Zm-8.5-5.689a5.322,5.322,0,0,0,5.385,4.137h3.114a5.322,5.322,0,0,0,5.385-4.137Z" transform="translate(-125.107 -319.672)" fill="#DA291C"/>
        <path id="path-2_32_" d="M343.41,176.062a1.854,1.854,0,1,1-1.854-1.854A1.854,1.854,0,0,1,343.41,176.062Z" transform="translate(-320.146 -164.177)" fill="#DA291C"/>
        <path id="path-3_32_" d="M158.248,176.062a1.854,1.854,0,1,1-1.854-1.854A1.854,1.854,0,0,1,158.248,176.062Z" transform="translate(-145.645 -164.177)" fill="#DA291C"/>
        <path id="path-4_32_" d="M16.171,32.214a16.107,16.107,0,1,1,16.1-16.107A16.124,16.124,0,0,1,16.171,32.214Zm0-30.663A14.556,14.556,0,1,0,30.723,16.107,14.57,14.57,0,0,0,16.171,1.552Z" transform="translate(-0.068)" fill="#DA291C"/>
      </g>
    </g>
  </g>
</svg>
