<svg id="pausa-stage-2" xmlns="http://www.w3.org/2000/svg" width="59.639" height="59.654" viewBox="0 0 59.639 59.654">
  <g id="group-4svg" transform="translate(0)">
    <path id="path-2_32_" d="M346.569,177.642a3.434,3.434,0,1,1-3.434-3.434A3.434,3.434,0,0,1,346.569,177.642Z" transform="translate(-303.488 -155.633)" fill="#DA291C"/>
    <path id="path-3_32_" d="M161.406,177.642a3.433,3.433,0,1,1-3.433-3.434A3.433,3.433,0,0,1,161.406,177.642Z" transform="translate(-138.069 -155.633)" fill="#DA291C"/>
    <path id="path-4_32_" d="M29.888,59.654a29.827,29.827,0,1,1,29.82-29.826A29.857,29.857,0,0,1,29.888,59.654Zm0-56.781A26.954,26.954,0,1,0,56.835,29.827,26.98,26.98,0,0,0,29.888,2.873Z" transform="translate(-0.068)" fill="#DA291C"/>
    <path id="path-1_32_" d="M18.736,13.407H12.969C5.819,13.407,0,8.037,0,1.437A1.437,1.437,0,0,1,1.436,0H30.269A1.437,1.437,0,0,1,31.7,1.437C31.706,8.037,25.887,13.407,18.736,13.407ZM3,2.873c.767,4.336,4.946,7.661,9.971,7.661h5.766c5.025,0,9.205-3.325,9.972-7.661Z" transform="translate(45.852 47.724) rotate(180)" fill="#DA291C"/>
    <rect id="Retângulo_98" data-name="Retângulo 98" width="33.332" height="5.555" transform="translate(13.438 43.98)" fill="#fafafb"/>
  </g>
</svg>
